G04 #@! TF.GenerationSoftware,KiCad,Pcbnew,5.1.5+dfsg1-2build2*
G04 #@! TF.CreationDate,2021-05-24T09:01:55+02:00*
G04 #@! TF.ProjectId,gopher-pin-v3-drawing,676f7068-6572-42d7-9069-6e2d76332d64,rev?*
G04 #@! TF.SameCoordinates,Original*
G04 #@! TF.FileFunction,Soldermask,Top*
G04 #@! TF.FilePolarity,Negative*
%FSLAX46Y46*%
G04 Gerber Fmt 4.6, Leading zero omitted, Abs format (unit mm)*
G04 Created by KiCad (PCBNEW 5.1.5+dfsg1-2build2) date 2021-05-24 09:01:55*
%MOMM*%
%LPD*%
G04 APERTURE LIST*
%ADD10C,0.010000*%
G04 APERTURE END LIST*
D10*
G36*
X-27002579Y48930816D02*
G01*
X-26909307Y48799379D01*
X-26838272Y48645366D01*
X-26829360Y48615981D01*
X-26817663Y48566876D01*
X-26806467Y48526401D01*
X-26788009Y48491770D01*
X-26754524Y48460199D01*
X-26698249Y48428903D01*
X-26611419Y48395097D01*
X-26486271Y48355996D01*
X-26315039Y48308815D01*
X-26089962Y48250770D01*
X-25803274Y48179075D01*
X-25447211Y48090945D01*
X-25183896Y48025761D01*
X-24184625Y47778046D01*
X-24160996Y46611440D01*
X-24155797Y46305451D01*
X-24152985Y46027560D01*
X-24152521Y45788887D01*
X-24154362Y45600550D01*
X-24158467Y45473669D01*
X-24164794Y45419361D01*
X-24165434Y45418447D01*
X-24212347Y45403671D01*
X-24332023Y45374268D01*
X-24514260Y45332510D01*
X-24748859Y45280667D01*
X-25025618Y45221012D01*
X-25334336Y45155816D01*
X-25495250Y45122315D01*
X-26797000Y44852569D01*
X-26797000Y42466108D01*
X-26490083Y42399024D01*
X-26358880Y42370716D01*
X-26161387Y42328586D01*
X-25914187Y42276148D01*
X-25633862Y42216916D01*
X-25336996Y42154403D01*
X-25195597Y42124706D01*
X-24918462Y42066086D01*
X-24670275Y42012701D01*
X-24462607Y41967111D01*
X-24307030Y41931879D01*
X-24215117Y41909568D01*
X-24194938Y41903153D01*
X-24190931Y41858777D01*
X-24186172Y41740689D01*
X-24180939Y41559837D01*
X-24175513Y41327170D01*
X-24170172Y41053636D01*
X-24165195Y40750184D01*
X-24164707Y40717222D01*
X-24147566Y39545610D01*
X-25271199Y39327572D01*
X-25580276Y39267465D01*
X-25872197Y39210446D01*
X-26133554Y39159154D01*
X-26350937Y39116228D01*
X-26510936Y39084306D01*
X-26595916Y39066926D01*
X-26797000Y39024317D01*
X-26797000Y37059809D01*
X-25643416Y36855726D01*
X-25330042Y36800079D01*
X-25034046Y36747130D01*
X-24768652Y36699274D01*
X-24547083Y36658908D01*
X-24382562Y36628426D01*
X-24288750Y36610313D01*
X-24087666Y36568984D01*
X-24087666Y34214380D01*
X-24331083Y34171527D01*
X-24439235Y34153090D01*
X-24616720Y34123540D01*
X-24849281Y34085219D01*
X-25122662Y34040470D01*
X-25422605Y33991634D01*
X-25685750Y33948989D01*
X-26797000Y33769304D01*
X-26797000Y31878613D01*
X-26701750Y31857368D01*
X-26635523Y31845501D01*
X-26497659Y31822936D01*
X-26300242Y31791575D01*
X-26055361Y31753322D01*
X-25775099Y31710079D01*
X-25484666Y31665742D01*
X-25181848Y31619489D01*
X-24902834Y31576376D01*
X-24659711Y31538310D01*
X-24464564Y31507198D01*
X-24329479Y31484947D01*
X-24267583Y31473707D01*
X-24172333Y31452053D01*
X-24172333Y29129313D01*
X-24309916Y29091889D01*
X-24386147Y29072106D01*
X-24532555Y29034969D01*
X-24737135Y28983491D01*
X-24987884Y28920683D01*
X-25272797Y28849559D01*
X-25579871Y28773130D01*
X-25615169Y28764358D01*
X-26782839Y28474251D01*
X-26851770Y28281209D01*
X-26923479Y28128849D01*
X-27018063Y27984864D01*
X-27046964Y27950583D01*
X-27173227Y27813000D01*
X-46223691Y27813000D01*
X-46330369Y27952862D01*
X-46440417Y28124436D01*
X-46522787Y28305316D01*
X-46564208Y28464612D01*
X-46566666Y28502862D01*
X-46569330Y28531276D01*
X-46583025Y28556194D01*
X-46616312Y28580011D01*
X-46677751Y28605120D01*
X-46775900Y28633914D01*
X-46919319Y28668788D01*
X-47116567Y28712134D01*
X-47376204Y28766346D01*
X-47706790Y28833818D01*
X-47864805Y28865866D01*
X-48185218Y28931174D01*
X-48478718Y28991708D01*
X-48735071Y29045301D01*
X-48944044Y29089786D01*
X-49095403Y29122997D01*
X-49178913Y29142767D01*
X-49191905Y29146853D01*
X-49197753Y29191193D01*
X-49201702Y29306892D01*
X-49203904Y29480670D01*
X-49204510Y29699244D01*
X-49204377Y29739166D01*
X-45360166Y29739166D01*
X-45254333Y29527781D01*
X-45099424Y29308121D01*
X-44880696Y29142117D01*
X-44596201Y29028317D01*
X-44577000Y29023118D01*
X-44442151Y28988862D01*
X-44339533Y28965318D01*
X-44301833Y28958783D01*
X-44292483Y29000347D01*
X-44284789Y29126015D01*
X-44278757Y29335243D01*
X-44274391Y29627485D01*
X-44271698Y30002195D01*
X-44270682Y30458827D01*
X-44271349Y30996835D01*
X-44273705Y31615675D01*
X-44274538Y31779179D01*
X-44277494Y32592155D01*
X-44277143Y33328253D01*
X-44277115Y33333122D01*
X-43762579Y33333122D01*
X-43762344Y32758252D01*
X-43759258Y32171241D01*
X-43753400Y31586580D01*
X-43744849Y31018763D01*
X-43733682Y30482282D01*
X-43719978Y29991630D01*
X-43703815Y29561299D01*
X-43702785Y29538083D01*
X-43674820Y28913666D01*
X-29594836Y28913666D01*
X-29561168Y29072416D01*
X-29554914Y29144608D01*
X-29549358Y29293781D01*
X-29544496Y29512252D01*
X-29540323Y29792341D01*
X-29536835Y30126365D01*
X-29534029Y30506641D01*
X-29531900Y30925487D01*
X-29530444Y31375221D01*
X-29529656Y31848160D01*
X-29529533Y32336623D01*
X-29530071Y32832927D01*
X-29531265Y33329389D01*
X-29533111Y33818329D01*
X-29535605Y34292062D01*
X-29538743Y34742907D01*
X-29542521Y35163182D01*
X-29546934Y35545204D01*
X-29551978Y35881291D01*
X-29557650Y36163761D01*
X-29563945Y36384932D01*
X-29565139Y36417513D01*
X-29600390Y37338526D01*
X-29752513Y37204960D01*
X-29978614Y37041495D01*
X-30246588Y36914923D01*
X-30564911Y36823122D01*
X-30942058Y36763973D01*
X-31386506Y36735356D01*
X-31644166Y36731836D01*
X-31991131Y36736905D01*
X-32274632Y36754289D01*
X-32515451Y36787873D01*
X-32734370Y36841545D01*
X-32952171Y36919192D01*
X-33176256Y37018362D01*
X-33669340Y37294660D01*
X-34101716Y37628434D01*
X-34471231Y38017561D01*
X-34775727Y38459916D01*
X-34920472Y38737412D01*
X-35114787Y39241161D01*
X-35233364Y39762697D01*
X-35277879Y40312098D01*
X-35274458Y40407166D01*
X-34762997Y40407166D01*
X-34725632Y39870678D01*
X-34615489Y39374284D01*
X-34430525Y38911548D01*
X-34168695Y38476034D01*
X-34135131Y38429536D01*
X-33856593Y38111587D01*
X-33514715Y37820897D01*
X-33129668Y37570773D01*
X-32721619Y37374523D01*
X-32356969Y37256326D01*
X-32035650Y37200361D01*
X-31675554Y37175258D01*
X-31313596Y37181710D01*
X-30986693Y37220407D01*
X-30939571Y37229752D01*
X-30629657Y37318294D01*
X-30367981Y37448940D01*
X-30121975Y37638523D01*
X-30087694Y37670011D01*
X-29786985Y37997700D01*
X-29530766Y38379669D01*
X-29314201Y38824316D01*
X-29139813Y39315640D01*
X-29093414Y39478014D01*
X-29061483Y39621591D01*
X-29041318Y39769506D01*
X-29030217Y39944895D01*
X-29025477Y40170896D01*
X-29024678Y40301333D01*
X-29029431Y40637244D01*
X-29049665Y40913335D01*
X-29090413Y41153807D01*
X-29156710Y41382859D01*
X-29253589Y41624693D01*
X-29337264Y41804166D01*
X-29585596Y42224363D01*
X-29894823Y42589079D01*
X-30259343Y42892560D01*
X-30586148Y43086960D01*
X-30793591Y43183983D01*
X-30989089Y43256111D01*
X-31192970Y43307651D01*
X-31425563Y43342908D01*
X-31707195Y43366189D01*
X-31961666Y43378336D01*
X-32617833Y43403493D01*
X-32946000Y43271827D01*
X-33404085Y43047948D01*
X-33796703Y42770577D01*
X-34123321Y42440553D01*
X-34383407Y42058716D01*
X-34576429Y41625904D01*
X-34701854Y41142957D01*
X-34759151Y40610714D01*
X-34762997Y40407166D01*
X-35274458Y40407166D01*
X-35260942Y40782716D01*
X-35178734Y41349282D01*
X-35031132Y41868183D01*
X-34819966Y42336480D01*
X-34547063Y42751238D01*
X-34214251Y43109519D01*
X-33823357Y43408385D01*
X-33521212Y43578191D01*
X-33191937Y43727092D01*
X-32898243Y43827631D01*
X-32618480Y43882006D01*
X-32331000Y43892415D01*
X-32014152Y43861056D01*
X-31646288Y43790127D01*
X-31580946Y43775183D01*
X-31381597Y43730037D01*
X-31214438Y43694499D01*
X-31095375Y43671779D01*
X-31040312Y43665089D01*
X-31038541Y43665681D01*
X-31061034Y43697523D01*
X-31143473Y43763717D01*
X-31272758Y43855803D01*
X-31435789Y43965323D01*
X-31619466Y44083818D01*
X-31810690Y44202830D01*
X-31996359Y44313900D01*
X-32163374Y44408569D01*
X-32293091Y44475735D01*
X-32420666Y44533173D01*
X-31427495Y44533173D01*
X-31239498Y44340860D01*
X-31051500Y44148547D01*
X-30932546Y44288690D01*
X-30841688Y44416269D01*
X-30753627Y44571673D01*
X-30726250Y44629916D01*
X-30666309Y44744045D01*
X-30608123Y44816907D01*
X-30580620Y44831000D01*
X-30532860Y44809967D01*
X-30531070Y44741401D01*
X-30576459Y44617099D01*
X-30627989Y44510091D01*
X-30685851Y44395914D01*
X-30724303Y44319796D01*
X-30733823Y44300714D01*
X-30696640Y44303402D01*
X-30604189Y44311470D01*
X-30575250Y44314094D01*
X-30423835Y44304335D01*
X-30331833Y44263643D01*
X-30288097Y44225227D01*
X-30295892Y44205776D01*
X-30367692Y44198600D01*
X-30455500Y44197346D01*
X-30631025Y44174721D01*
X-30755532Y44114482D01*
X-30815363Y44024275D01*
X-30818666Y43994065D01*
X-30788430Y43931509D01*
X-30713629Y43842243D01*
X-30618127Y43749416D01*
X-30525785Y43676179D01*
X-30460468Y43645682D01*
X-30459545Y43645666D01*
X-30400879Y43671329D01*
X-30310278Y43735485D01*
X-30278180Y43762083D01*
X-30184831Y43860807D01*
X-30076976Y44001359D01*
X-29990925Y44132500D01*
X-29908467Y44279130D01*
X-29866266Y44386763D01*
X-29855575Y44485444D01*
X-29863006Y44571911D01*
X-29899680Y44726389D01*
X-29959523Y44872436D01*
X-29973630Y44897138D01*
X-30098172Y45026955D01*
X-30272284Y45118610D01*
X-30464654Y45158981D01*
X-30581818Y45152046D01*
X-30697537Y45108265D01*
X-30851689Y45020462D01*
X-31022151Y44903786D01*
X-31186800Y44773386D01*
X-31323511Y44644413D01*
X-31324164Y44643715D01*
X-31427495Y44533173D01*
X-32420666Y44533173D01*
X-32960188Y44776080D01*
X-33590223Y45016873D01*
X-34201732Y45202417D01*
X-34813251Y45337013D01*
X-35443316Y45424964D01*
X-36110463Y45470571D01*
X-36618333Y45479607D01*
X-37497555Y45449141D01*
X-38333739Y45358705D01*
X-39122049Y45209269D01*
X-39857647Y45001805D01*
X-40535699Y44737286D01*
X-40703500Y44658540D01*
X-40828346Y44592295D01*
X-40987012Y44500081D01*
X-41167565Y44389778D01*
X-41358072Y44269264D01*
X-41546600Y44146416D01*
X-41721216Y44029114D01*
X-41869988Y43925236D01*
X-41980983Y43842660D01*
X-42042267Y43789264D01*
X-42045286Y43772666D01*
X-41987003Y43779246D01*
X-41862679Y43797225D01*
X-41689770Y43823967D01*
X-41485728Y43856833D01*
X-41455836Y43861746D01*
X-41026979Y43918526D01*
X-40655957Y43935506D01*
X-40325397Y43911778D01*
X-40017927Y43846431D01*
X-39807133Y43775438D01*
X-39357091Y43557380D01*
X-38952374Y43267933D01*
X-38593319Y42907429D01*
X-38280262Y42476204D01*
X-38027547Y42005192D01*
X-37919190Y41736036D01*
X-37841966Y41457186D01*
X-37793304Y41151357D01*
X-37770630Y40801262D01*
X-37771372Y40389614D01*
X-37774004Y40301333D01*
X-37790653Y39952812D01*
X-37818051Y39665925D01*
X-37861374Y39417825D01*
X-37925801Y39185662D01*
X-38016509Y38946589D01*
X-38138673Y38677757D01*
X-38144755Y38665088D01*
X-38397123Y38233594D01*
X-38715844Y37840925D01*
X-39089667Y37495865D01*
X-39507342Y37207196D01*
X-39957617Y36983702D01*
X-40429243Y36834165D01*
X-40513000Y36816281D01*
X-40914722Y36755962D01*
X-41347190Y36724032D01*
X-41771636Y36722286D01*
X-42079333Y36743822D01*
X-42409732Y36800392D01*
X-42694681Y36896878D01*
X-42959542Y37045034D01*
X-43229674Y37256616D01*
X-43277187Y37299051D01*
X-43405294Y37410528D01*
X-43509699Y37492646D01*
X-43575354Y37533993D01*
X-43589159Y37535618D01*
X-43604305Y37479253D01*
X-43620993Y37340019D01*
X-43639112Y37119698D01*
X-43658552Y36820072D01*
X-43679202Y36442924D01*
X-43700949Y35990035D01*
X-43723683Y35463187D01*
X-43733458Y35221333D01*
X-43745404Y34839956D01*
X-43754188Y34388466D01*
X-43759887Y33881358D01*
X-43762579Y33333122D01*
X-44277115Y33333122D01*
X-44273297Y33995203D01*
X-44265769Y34600735D01*
X-44254374Y35152581D01*
X-44238925Y35658471D01*
X-44219235Y36126135D01*
X-44195119Y36563305D01*
X-44166389Y36977710D01*
X-44142029Y37274500D01*
X-44115767Y37597497D01*
X-44101063Y37854479D01*
X-44099010Y38063447D01*
X-44110698Y38242404D01*
X-44137219Y38409351D01*
X-44179665Y38582290D01*
X-44231866Y38756296D01*
X-44348844Y39162072D01*
X-44427687Y39527008D01*
X-44473544Y39883032D01*
X-44491570Y40262066D01*
X-44491846Y40301333D01*
X-44003319Y40301333D01*
X-43999870Y40033404D01*
X-43988668Y39825281D01*
X-43967112Y39652257D01*
X-43932602Y39489629D01*
X-43908431Y39400120D01*
X-43741021Y38920851D01*
X-43527514Y38485856D01*
X-43273746Y38101795D01*
X-42985551Y37775323D01*
X-42668767Y37513097D01*
X-42329227Y37321776D01*
X-41990081Y37211585D01*
X-41796548Y37189082D01*
X-41547640Y37186992D01*
X-41269716Y37203638D01*
X-40989134Y37237342D01*
X-40732253Y37286426D01*
X-40703500Y37293465D01*
X-40209584Y37460370D01*
X-39751547Y37700027D01*
X-39337228Y38005609D01*
X-38974469Y38370289D01*
X-38671107Y38787241D01*
X-38434984Y39249638D01*
X-38422847Y39279370D01*
X-38292674Y39602833D01*
X-38294417Y40449500D01*
X-38295818Y40745673D01*
X-38299476Y40971832D01*
X-38306647Y41142621D01*
X-38318589Y41272685D01*
X-38336556Y41376671D01*
X-38361806Y41469225D01*
X-38388479Y41545919D01*
X-38572844Y41958604D01*
X-38808813Y42326379D01*
X-39112329Y42673838D01*
X-39133444Y42694982D01*
X-39471123Y42988114D01*
X-39823002Y43205000D01*
X-40201906Y43350832D01*
X-40620660Y43430805D01*
X-40999833Y43450876D01*
X-41410482Y43429505D01*
X-41792743Y43358801D01*
X-42176218Y43231834D01*
X-42448745Y43111754D01*
X-42818594Y42900921D01*
X-43127805Y42646653D01*
X-43388238Y42336887D01*
X-43611756Y41959556D01*
X-43642040Y41898032D01*
X-43784693Y41583355D01*
X-43885684Y41308670D01*
X-43951391Y41045781D01*
X-43988194Y40766494D01*
X-44002473Y40442614D01*
X-44003319Y40301333D01*
X-44491846Y40301333D01*
X-44492333Y40370342D01*
X-44460578Y40948406D01*
X-44363256Y41477762D01*
X-44197287Y41966838D01*
X-43959587Y42424059D01*
X-43647074Y42857852D01*
X-43534446Y42988974D01*
X-43427959Y43115118D01*
X-43348188Y43222525D01*
X-43309014Y43292110D01*
X-43307190Y43301411D01*
X-43333282Y43366935D01*
X-43398978Y43462226D01*
X-43429660Y43499025D01*
X-43565029Y43687130D01*
X-43660115Y43904091D01*
X-43719164Y44165057D01*
X-43746417Y44485177D01*
X-43749401Y44640500D01*
X-43749089Y44719575D01*
X-43339366Y44719575D01*
X-43315721Y44474882D01*
X-43214624Y44198684D01*
X-43208110Y44185234D01*
X-43122283Y44021670D01*
X-43028002Y43860659D01*
X-42936456Y43719245D01*
X-42858833Y43614473D01*
X-42806325Y43563386D01*
X-42798309Y43561000D01*
X-42753587Y43590714D01*
X-42675317Y43667284D01*
X-42610234Y43739781D01*
X-42485880Y43904856D01*
X-42430565Y44033220D01*
X-42442107Y44133951D01*
X-42499305Y44201791D01*
X-42606465Y44261722D01*
X-42739463Y44304206D01*
X-42749104Y44306054D01*
X-42912539Y44345146D01*
X-43001995Y44393652D01*
X-43028131Y44458799D01*
X-43023077Y44491779D01*
X-42971291Y44562663D01*
X-42872515Y44564464D01*
X-42756666Y44513500D01*
X-42641259Y44466363D01*
X-42536554Y44453730D01*
X-42468519Y44476517D01*
X-42456231Y44502916D01*
X-42455420Y44577834D01*
X-42458691Y44694472D01*
X-42459742Y44718363D01*
X-42458436Y44823807D01*
X-42434702Y44865663D01*
X-42389760Y44866242D01*
X-42333728Y44826521D01*
X-42285803Y44722721D01*
X-42254373Y44608462D01*
X-42205725Y44451882D01*
X-42148945Y44375090D01*
X-42076511Y44373208D01*
X-41987417Y44435394D01*
X-41920871Y44537971D01*
X-41927000Y44664745D01*
X-42006622Y44822871D01*
X-42036674Y44866165D01*
X-42217043Y45063788D01*
X-42418079Y45198157D01*
X-42627410Y45268621D01*
X-42832664Y45274534D01*
X-43021469Y45215244D01*
X-43181453Y45090104D01*
X-43285444Y44931674D01*
X-43339366Y44719575D01*
X-43749089Y44719575D01*
X-43748511Y44865535D01*
X-43741885Y45025867D01*
X-43726860Y45141404D01*
X-43700773Y45232054D01*
X-43660962Y45317726D01*
X-43658106Y45323091D01*
X-43497503Y45548554D01*
X-43294510Y45701654D01*
X-43046842Y45783562D01*
X-42752212Y45795449D01*
X-42738096Y45794379D01*
X-42451286Y45740359D01*
X-42174291Y45621710D01*
X-41895742Y45432385D01*
X-41657839Y45219807D01*
X-41341948Y44910115D01*
X-40811057Y45163901D01*
X-40208658Y45421001D01*
X-39580508Y45626847D01*
X-38916945Y45783329D01*
X-38208309Y45892338D01*
X-37444937Y45955761D01*
X-36660666Y45975510D01*
X-36058845Y45965428D01*
X-35514963Y45932648D01*
X-35004761Y45874760D01*
X-34503977Y45789358D01*
X-34253558Y45736485D01*
X-33960550Y45664451D01*
X-33672765Y45578865D01*
X-33372561Y45473314D01*
X-33042298Y45341389D01*
X-32664335Y45176678D01*
X-32470090Y45088362D01*
X-32269142Y44997079D01*
X-32095313Y44920041D01*
X-31963161Y44863555D01*
X-31887244Y44833923D01*
X-31875761Y44831000D01*
X-31833203Y44859644D01*
X-31747917Y44936328D01*
X-31634931Y45047186D01*
X-31576290Y45107401D01*
X-31305266Y45353997D01*
X-31036397Y45522764D01*
X-30758021Y45619401D01*
X-30467317Y45649617D01*
X-30149813Y45620147D01*
X-29891015Y45529870D01*
X-29690115Y45378013D01*
X-29546305Y45163802D01*
X-29458779Y44886461D01*
X-29430617Y44655170D01*
X-29430275Y44370954D01*
X-29469313Y44103278D01*
X-29553720Y43823821D01*
X-29660727Y43566579D01*
X-29802410Y43254659D01*
X-29471096Y42904649D01*
X-29144549Y42499406D01*
X-28883420Y42047647D01*
X-28688694Y41557786D01*
X-28561355Y41038232D01*
X-28502389Y40497398D01*
X-28512782Y39943695D01*
X-28593518Y39385533D01*
X-28745582Y38831326D01*
X-28938300Y38355452D01*
X-29137615Y37931714D01*
X-29083803Y36227273D01*
X-29073618Y35863203D01*
X-29063571Y35424937D01*
X-29053791Y34922945D01*
X-29044403Y34367698D01*
X-29035534Y33769667D01*
X-29027311Y33139321D01*
X-29019860Y32487132D01*
X-29013309Y31823570D01*
X-29007783Y31159105D01*
X-29003410Y30504208D01*
X-29000316Y29869350D01*
X-28998628Y29265001D01*
X-28998503Y29176921D01*
X-28979039Y29064425D01*
X-28914603Y29011134D01*
X-28795602Y29012658D01*
X-28694689Y29037855D01*
X-28527806Y29118247D01*
X-28352141Y29251494D01*
X-28194627Y29413687D01*
X-28082198Y29580916D01*
X-28081609Y29582097D01*
X-28072248Y29603245D01*
X-28063669Y29629819D01*
X-28055840Y29665405D01*
X-28048729Y29713589D01*
X-28042303Y29777958D01*
X-28036532Y29862099D01*
X-28031382Y29969597D01*
X-28026821Y30104041D01*
X-28022819Y30269015D01*
X-28019342Y30468108D01*
X-28016358Y30704904D01*
X-28013837Y30982992D01*
X-28011745Y31305956D01*
X-28010051Y31677385D01*
X-28008722Y32100864D01*
X-28007727Y32579979D01*
X-28007033Y33118319D01*
X-28006610Y33719468D01*
X-28006423Y34387014D01*
X-28006442Y35124543D01*
X-28006635Y35935641D01*
X-28006969Y36823896D01*
X-28007413Y37792893D01*
X-28007459Y37888333D01*
X-28008247Y39036134D01*
X-28009457Y40099765D01*
X-28011091Y41079721D01*
X-28013153Y41976497D01*
X-28015646Y42790587D01*
X-28018571Y43522489D01*
X-28021933Y44172696D01*
X-28025733Y44741704D01*
X-28029976Y45230008D01*
X-28034663Y45638103D01*
X-28039797Y45966485D01*
X-28045382Y46215648D01*
X-28051421Y46386089D01*
X-28057053Y46470799D01*
X-28093251Y46728083D01*
X-28148009Y46928094D01*
X-28231818Y47079366D01*
X-28355165Y47190435D01*
X-28528538Y47269834D01*
X-28762427Y47326100D01*
X-29067320Y47367767D01*
X-29172575Y47378538D01*
X-29288509Y47385539D01*
X-29483480Y47392058D01*
X-29751862Y47398096D01*
X-30088026Y47403653D01*
X-30486345Y47408728D01*
X-30941192Y47413322D01*
X-31446938Y47417435D01*
X-31997957Y47421066D01*
X-32588621Y47424216D01*
X-33213302Y47426885D01*
X-33866372Y47429072D01*
X-34542205Y47430778D01*
X-35235172Y47432003D01*
X-35939646Y47432747D01*
X-36649999Y47433009D01*
X-37360605Y47432790D01*
X-38065834Y47432089D01*
X-38760060Y47430908D01*
X-39437655Y47429244D01*
X-40092992Y47427100D01*
X-40720443Y47424474D01*
X-41314380Y47421367D01*
X-41869176Y47417779D01*
X-42379204Y47413710D01*
X-42838835Y47409159D01*
X-43242442Y47404126D01*
X-43584398Y47398613D01*
X-43859075Y47392618D01*
X-44060845Y47386142D01*
X-44184082Y47379184D01*
X-44191091Y47378538D01*
X-44518989Y47339551D01*
X-44772781Y47288488D01*
X-44962952Y47216815D01*
X-45099989Y47115998D01*
X-45194378Y46977505D01*
X-45256604Y46792801D01*
X-45297154Y46553354D01*
X-45306531Y46470799D01*
X-45312969Y46367943D01*
X-45318952Y46185901D01*
X-45324484Y45924243D01*
X-45329567Y45582544D01*
X-45334203Y45160375D01*
X-45338394Y44657310D01*
X-45342144Y44072920D01*
X-45345454Y43406778D01*
X-45348327Y42658457D01*
X-45350766Y41827530D01*
X-45352773Y40913569D01*
X-45354350Y39916146D01*
X-45355501Y38834835D01*
X-45356125Y37888333D01*
X-45360166Y29739166D01*
X-49204377Y29739166D01*
X-49203671Y29949334D01*
X-49201538Y30217657D01*
X-49198264Y30490931D01*
X-49193999Y30755875D01*
X-49188895Y30999206D01*
X-49183102Y31207644D01*
X-49176773Y31367907D01*
X-49170059Y31466713D01*
X-49165182Y31492229D01*
X-49121214Y31503949D01*
X-49004171Y31528853D01*
X-48824273Y31564937D01*
X-48591739Y31610198D01*
X-48316787Y31662633D01*
X-48009638Y31720239D01*
X-47868660Y31746387D01*
X-46587833Y31983149D01*
X-46565009Y33719849D01*
X-47927060Y33990851D01*
X-49289112Y34261853D01*
X-49260160Y35427212D01*
X-49251933Y35732570D01*
X-49243248Y36009391D01*
X-49234551Y36246640D01*
X-49226286Y36433286D01*
X-49218898Y36558297D01*
X-49212833Y36610640D01*
X-49212388Y36611389D01*
X-49169552Y36622186D01*
X-49055698Y36646444D01*
X-48882979Y36681793D01*
X-48663552Y36725864D01*
X-48409569Y36776285D01*
X-48133186Y36830686D01*
X-47846558Y36886697D01*
X-47561839Y36941946D01*
X-47291183Y36994063D01*
X-47046746Y37040679D01*
X-46840681Y37079421D01*
X-46685144Y37107920D01*
X-46592289Y37123806D01*
X-46572197Y37126309D01*
X-46566173Y37166209D01*
X-46563261Y37276251D01*
X-46563092Y37441978D01*
X-46565300Y37648937D01*
X-46569515Y37882674D01*
X-46575371Y38128734D01*
X-46582500Y38372662D01*
X-46590533Y38600005D01*
X-46599103Y38796307D01*
X-46607842Y38947114D01*
X-46616383Y39037972D01*
X-46621346Y39057790D01*
X-46669743Y39073986D01*
X-46789790Y39103442D01*
X-46969951Y39143646D01*
X-47198693Y39192085D01*
X-47464479Y39246245D01*
X-47699459Y39292673D01*
X-48000122Y39351358D01*
X-48285468Y39407210D01*
X-48541054Y39457390D01*
X-48752439Y39499057D01*
X-48905178Y39529374D01*
X-48969083Y39542242D01*
X-49191333Y39587669D01*
X-49191333Y41943155D01*
X-49096083Y41966142D01*
X-49028977Y41980385D01*
X-48891435Y42008094D01*
X-48696165Y42046763D01*
X-48455876Y42093885D01*
X-48183279Y42146952D01*
X-47984833Y42185368D01*
X-47689803Y42242518D01*
X-47411314Y42296769D01*
X-47163796Y42345288D01*
X-46961674Y42385241D01*
X-46819379Y42413792D01*
X-46767750Y42424478D01*
X-46566666Y42467349D01*
X-46566666Y43686979D01*
X-46567515Y44059945D01*
X-46570267Y44355512D01*
X-46575232Y44580933D01*
X-46582720Y44743461D01*
X-46593040Y44850349D01*
X-46606504Y44908848D01*
X-46619583Y44925626D01*
X-46673053Y44938345D01*
X-46798933Y44965195D01*
X-46986552Y45003995D01*
X-47225238Y45052564D01*
X-47504321Y45108722D01*
X-47813130Y45170288D01*
X-47932559Y45193956D01*
X-49192618Y45443267D01*
X-49181392Y46628211D01*
X-49170166Y47813154D01*
X-46588054Y48536112D01*
X-46518284Y48683806D01*
X-46438972Y48819700D01*
X-46343545Y48944371D01*
X-46340278Y48947916D01*
X-46232043Y49064333D01*
X-44335605Y49060616D01*
X-43813149Y49058963D01*
X-43278893Y49056099D01*
X-42739710Y49052139D01*
X-42202470Y49047197D01*
X-41674046Y49041390D01*
X-41161310Y49034832D01*
X-40671133Y49027640D01*
X-40210388Y49019927D01*
X-39785946Y49011810D01*
X-39404680Y49003403D01*
X-39073460Y48994823D01*
X-38799160Y48986185D01*
X-38588650Y48977603D01*
X-38448803Y48969193D01*
X-38386491Y48961071D01*
X-38385750Y48960771D01*
X-38323694Y48914488D01*
X-38311666Y48886422D01*
X-38274912Y48786905D01*
X-38174031Y48665786D01*
X-38023097Y48533918D01*
X-37836184Y48402153D01*
X-37627365Y48281342D01*
X-37410714Y48182338D01*
X-37386506Y48173056D01*
X-37022146Y48066266D01*
X-36675801Y48030998D01*
X-36330797Y48068139D01*
X-35970462Y48178573D01*
X-35786681Y48258100D01*
X-35597965Y48359286D01*
X-35416201Y48479085D01*
X-35256444Y48604996D01*
X-35133745Y48724519D01*
X-35063157Y48825154D01*
X-35052000Y48868190D01*
X-35017816Y48933747D01*
X-34977916Y48960771D01*
X-34918656Y48968883D01*
X-34781598Y48977286D01*
X-34573613Y48985864D01*
X-34301569Y48994503D01*
X-33972336Y49003087D01*
X-33592782Y49011502D01*
X-33169776Y49019631D01*
X-32710188Y49027360D01*
X-32220886Y49034574D01*
X-31708740Y49041157D01*
X-31180618Y49046993D01*
X-30643389Y49051969D01*
X-30103923Y49055968D01*
X-29569089Y49058875D01*
X-29045755Y49060576D01*
X-29025901Y49060616D01*
X-27127302Y49064333D01*
X-27002579Y48930816D01*
G37*
X-27002579Y48930816D02*
X-26909307Y48799379D01*
X-26838272Y48645366D01*
X-26829360Y48615981D01*
X-26817663Y48566876D01*
X-26806467Y48526401D01*
X-26788009Y48491770D01*
X-26754524Y48460199D01*
X-26698249Y48428903D01*
X-26611419Y48395097D01*
X-26486271Y48355996D01*
X-26315039Y48308815D01*
X-26089962Y48250770D01*
X-25803274Y48179075D01*
X-25447211Y48090945D01*
X-25183896Y48025761D01*
X-24184625Y47778046D01*
X-24160996Y46611440D01*
X-24155797Y46305451D01*
X-24152985Y46027560D01*
X-24152521Y45788887D01*
X-24154362Y45600550D01*
X-24158467Y45473669D01*
X-24164794Y45419361D01*
X-24165434Y45418447D01*
X-24212347Y45403671D01*
X-24332023Y45374268D01*
X-24514260Y45332510D01*
X-24748859Y45280667D01*
X-25025618Y45221012D01*
X-25334336Y45155816D01*
X-25495250Y45122315D01*
X-26797000Y44852569D01*
X-26797000Y42466108D01*
X-26490083Y42399024D01*
X-26358880Y42370716D01*
X-26161387Y42328586D01*
X-25914187Y42276148D01*
X-25633862Y42216916D01*
X-25336996Y42154403D01*
X-25195597Y42124706D01*
X-24918462Y42066086D01*
X-24670275Y42012701D01*
X-24462607Y41967111D01*
X-24307030Y41931879D01*
X-24215117Y41909568D01*
X-24194938Y41903153D01*
X-24190931Y41858777D01*
X-24186172Y41740689D01*
X-24180939Y41559837D01*
X-24175513Y41327170D01*
X-24170172Y41053636D01*
X-24165195Y40750184D01*
X-24164707Y40717222D01*
X-24147566Y39545610D01*
X-25271199Y39327572D01*
X-25580276Y39267465D01*
X-25872197Y39210446D01*
X-26133554Y39159154D01*
X-26350937Y39116228D01*
X-26510936Y39084306D01*
X-26595916Y39066926D01*
X-26797000Y39024317D01*
X-26797000Y37059809D01*
X-25643416Y36855726D01*
X-25330042Y36800079D01*
X-25034046Y36747130D01*
X-24768652Y36699274D01*
X-24547083Y36658908D01*
X-24382562Y36628426D01*
X-24288750Y36610313D01*
X-24087666Y36568984D01*
X-24087666Y34214380D01*
X-24331083Y34171527D01*
X-24439235Y34153090D01*
X-24616720Y34123540D01*
X-24849281Y34085219D01*
X-25122662Y34040470D01*
X-25422605Y33991634D01*
X-25685750Y33948989D01*
X-26797000Y33769304D01*
X-26797000Y31878613D01*
X-26701750Y31857368D01*
X-26635523Y31845501D01*
X-26497659Y31822936D01*
X-26300242Y31791575D01*
X-26055361Y31753322D01*
X-25775099Y31710079D01*
X-25484666Y31665742D01*
X-25181848Y31619489D01*
X-24902834Y31576376D01*
X-24659711Y31538310D01*
X-24464564Y31507198D01*
X-24329479Y31484947D01*
X-24267583Y31473707D01*
X-24172333Y31452053D01*
X-24172333Y29129313D01*
X-24309916Y29091889D01*
X-24386147Y29072106D01*
X-24532555Y29034969D01*
X-24737135Y28983491D01*
X-24987884Y28920683D01*
X-25272797Y28849559D01*
X-25579871Y28773130D01*
X-25615169Y28764358D01*
X-26782839Y28474251D01*
X-26851770Y28281209D01*
X-26923479Y28128849D01*
X-27018063Y27984864D01*
X-27046964Y27950583D01*
X-27173227Y27813000D01*
X-46223691Y27813000D01*
X-46330369Y27952862D01*
X-46440417Y28124436D01*
X-46522787Y28305316D01*
X-46564208Y28464612D01*
X-46566666Y28502862D01*
X-46569330Y28531276D01*
X-46583025Y28556194D01*
X-46616312Y28580011D01*
X-46677751Y28605120D01*
X-46775900Y28633914D01*
X-46919319Y28668788D01*
X-47116567Y28712134D01*
X-47376204Y28766346D01*
X-47706790Y28833818D01*
X-47864805Y28865866D01*
X-48185218Y28931174D01*
X-48478718Y28991708D01*
X-48735071Y29045301D01*
X-48944044Y29089786D01*
X-49095403Y29122997D01*
X-49178913Y29142767D01*
X-49191905Y29146853D01*
X-49197753Y29191193D01*
X-49201702Y29306892D01*
X-49203904Y29480670D01*
X-49204510Y29699244D01*
X-49204377Y29739166D01*
X-45360166Y29739166D01*
X-45254333Y29527781D01*
X-45099424Y29308121D01*
X-44880696Y29142117D01*
X-44596201Y29028317D01*
X-44577000Y29023118D01*
X-44442151Y28988862D01*
X-44339533Y28965318D01*
X-44301833Y28958783D01*
X-44292483Y29000347D01*
X-44284789Y29126015D01*
X-44278757Y29335243D01*
X-44274391Y29627485D01*
X-44271698Y30002195D01*
X-44270682Y30458827D01*
X-44271349Y30996835D01*
X-44273705Y31615675D01*
X-44274538Y31779179D01*
X-44277494Y32592155D01*
X-44277143Y33328253D01*
X-44277115Y33333122D01*
X-43762579Y33333122D01*
X-43762344Y32758252D01*
X-43759258Y32171241D01*
X-43753400Y31586580D01*
X-43744849Y31018763D01*
X-43733682Y30482282D01*
X-43719978Y29991630D01*
X-43703815Y29561299D01*
X-43702785Y29538083D01*
X-43674820Y28913666D01*
X-29594836Y28913666D01*
X-29561168Y29072416D01*
X-29554914Y29144608D01*
X-29549358Y29293781D01*
X-29544496Y29512252D01*
X-29540323Y29792341D01*
X-29536835Y30126365D01*
X-29534029Y30506641D01*
X-29531900Y30925487D01*
X-29530444Y31375221D01*
X-29529656Y31848160D01*
X-29529533Y32336623D01*
X-29530071Y32832927D01*
X-29531265Y33329389D01*
X-29533111Y33818329D01*
X-29535605Y34292062D01*
X-29538743Y34742907D01*
X-29542521Y35163182D01*
X-29546934Y35545204D01*
X-29551978Y35881291D01*
X-29557650Y36163761D01*
X-29563945Y36384932D01*
X-29565139Y36417513D01*
X-29600390Y37338526D01*
X-29752513Y37204960D01*
X-29978614Y37041495D01*
X-30246588Y36914923D01*
X-30564911Y36823122D01*
X-30942058Y36763973D01*
X-31386506Y36735356D01*
X-31644166Y36731836D01*
X-31991131Y36736905D01*
X-32274632Y36754289D01*
X-32515451Y36787873D01*
X-32734370Y36841545D01*
X-32952171Y36919192D01*
X-33176256Y37018362D01*
X-33669340Y37294660D01*
X-34101716Y37628434D01*
X-34471231Y38017561D01*
X-34775727Y38459916D01*
X-34920472Y38737412D01*
X-35114787Y39241161D01*
X-35233364Y39762697D01*
X-35277879Y40312098D01*
X-35274458Y40407166D01*
X-34762997Y40407166D01*
X-34725632Y39870678D01*
X-34615489Y39374284D01*
X-34430525Y38911548D01*
X-34168695Y38476034D01*
X-34135131Y38429536D01*
X-33856593Y38111587D01*
X-33514715Y37820897D01*
X-33129668Y37570773D01*
X-32721619Y37374523D01*
X-32356969Y37256326D01*
X-32035650Y37200361D01*
X-31675554Y37175258D01*
X-31313596Y37181710D01*
X-30986693Y37220407D01*
X-30939571Y37229752D01*
X-30629657Y37318294D01*
X-30367981Y37448940D01*
X-30121975Y37638523D01*
X-30087694Y37670011D01*
X-29786985Y37997700D01*
X-29530766Y38379669D01*
X-29314201Y38824316D01*
X-29139813Y39315640D01*
X-29093414Y39478014D01*
X-29061483Y39621591D01*
X-29041318Y39769506D01*
X-29030217Y39944895D01*
X-29025477Y40170896D01*
X-29024678Y40301333D01*
X-29029431Y40637244D01*
X-29049665Y40913335D01*
X-29090413Y41153807D01*
X-29156710Y41382859D01*
X-29253589Y41624693D01*
X-29337264Y41804166D01*
X-29585596Y42224363D01*
X-29894823Y42589079D01*
X-30259343Y42892560D01*
X-30586148Y43086960D01*
X-30793591Y43183983D01*
X-30989089Y43256111D01*
X-31192970Y43307651D01*
X-31425563Y43342908D01*
X-31707195Y43366189D01*
X-31961666Y43378336D01*
X-32617833Y43403493D01*
X-32946000Y43271827D01*
X-33404085Y43047948D01*
X-33796703Y42770577D01*
X-34123321Y42440553D01*
X-34383407Y42058716D01*
X-34576429Y41625904D01*
X-34701854Y41142957D01*
X-34759151Y40610714D01*
X-34762997Y40407166D01*
X-35274458Y40407166D01*
X-35260942Y40782716D01*
X-35178734Y41349282D01*
X-35031132Y41868183D01*
X-34819966Y42336480D01*
X-34547063Y42751238D01*
X-34214251Y43109519D01*
X-33823357Y43408385D01*
X-33521212Y43578191D01*
X-33191937Y43727092D01*
X-32898243Y43827631D01*
X-32618480Y43882006D01*
X-32331000Y43892415D01*
X-32014152Y43861056D01*
X-31646288Y43790127D01*
X-31580946Y43775183D01*
X-31381597Y43730037D01*
X-31214438Y43694499D01*
X-31095375Y43671779D01*
X-31040312Y43665089D01*
X-31038541Y43665681D01*
X-31061034Y43697523D01*
X-31143473Y43763717D01*
X-31272758Y43855803D01*
X-31435789Y43965323D01*
X-31619466Y44083818D01*
X-31810690Y44202830D01*
X-31996359Y44313900D01*
X-32163374Y44408569D01*
X-32293091Y44475735D01*
X-32420666Y44533173D01*
X-31427495Y44533173D01*
X-31239498Y44340860D01*
X-31051500Y44148547D01*
X-30932546Y44288690D01*
X-30841688Y44416269D01*
X-30753627Y44571673D01*
X-30726250Y44629916D01*
X-30666309Y44744045D01*
X-30608123Y44816907D01*
X-30580620Y44831000D01*
X-30532860Y44809967D01*
X-30531070Y44741401D01*
X-30576459Y44617099D01*
X-30627989Y44510091D01*
X-30685851Y44395914D01*
X-30724303Y44319796D01*
X-30733823Y44300714D01*
X-30696640Y44303402D01*
X-30604189Y44311470D01*
X-30575250Y44314094D01*
X-30423835Y44304335D01*
X-30331833Y44263643D01*
X-30288097Y44225227D01*
X-30295892Y44205776D01*
X-30367692Y44198600D01*
X-30455500Y44197346D01*
X-30631025Y44174721D01*
X-30755532Y44114482D01*
X-30815363Y44024275D01*
X-30818666Y43994065D01*
X-30788430Y43931509D01*
X-30713629Y43842243D01*
X-30618127Y43749416D01*
X-30525785Y43676179D01*
X-30460468Y43645682D01*
X-30459545Y43645666D01*
X-30400879Y43671329D01*
X-30310278Y43735485D01*
X-30278180Y43762083D01*
X-30184831Y43860807D01*
X-30076976Y44001359D01*
X-29990925Y44132500D01*
X-29908467Y44279130D01*
X-29866266Y44386763D01*
X-29855575Y44485444D01*
X-29863006Y44571911D01*
X-29899680Y44726389D01*
X-29959523Y44872436D01*
X-29973630Y44897138D01*
X-30098172Y45026955D01*
X-30272284Y45118610D01*
X-30464654Y45158981D01*
X-30581818Y45152046D01*
X-30697537Y45108265D01*
X-30851689Y45020462D01*
X-31022151Y44903786D01*
X-31186800Y44773386D01*
X-31323511Y44644413D01*
X-31324164Y44643715D01*
X-31427495Y44533173D01*
X-32420666Y44533173D01*
X-32960188Y44776080D01*
X-33590223Y45016873D01*
X-34201732Y45202417D01*
X-34813251Y45337013D01*
X-35443316Y45424964D01*
X-36110463Y45470571D01*
X-36618333Y45479607D01*
X-37497555Y45449141D01*
X-38333739Y45358705D01*
X-39122049Y45209269D01*
X-39857647Y45001805D01*
X-40535699Y44737286D01*
X-40703500Y44658540D01*
X-40828346Y44592295D01*
X-40987012Y44500081D01*
X-41167565Y44389778D01*
X-41358072Y44269264D01*
X-41546600Y44146416D01*
X-41721216Y44029114D01*
X-41869988Y43925236D01*
X-41980983Y43842660D01*
X-42042267Y43789264D01*
X-42045286Y43772666D01*
X-41987003Y43779246D01*
X-41862679Y43797225D01*
X-41689770Y43823967D01*
X-41485728Y43856833D01*
X-41455836Y43861746D01*
X-41026979Y43918526D01*
X-40655957Y43935506D01*
X-40325397Y43911778D01*
X-40017927Y43846431D01*
X-39807133Y43775438D01*
X-39357091Y43557380D01*
X-38952374Y43267933D01*
X-38593319Y42907429D01*
X-38280262Y42476204D01*
X-38027547Y42005192D01*
X-37919190Y41736036D01*
X-37841966Y41457186D01*
X-37793304Y41151357D01*
X-37770630Y40801262D01*
X-37771372Y40389614D01*
X-37774004Y40301333D01*
X-37790653Y39952812D01*
X-37818051Y39665925D01*
X-37861374Y39417825D01*
X-37925801Y39185662D01*
X-38016509Y38946589D01*
X-38138673Y38677757D01*
X-38144755Y38665088D01*
X-38397123Y38233594D01*
X-38715844Y37840925D01*
X-39089667Y37495865D01*
X-39507342Y37207196D01*
X-39957617Y36983702D01*
X-40429243Y36834165D01*
X-40513000Y36816281D01*
X-40914722Y36755962D01*
X-41347190Y36724032D01*
X-41771636Y36722286D01*
X-42079333Y36743822D01*
X-42409732Y36800392D01*
X-42694681Y36896878D01*
X-42959542Y37045034D01*
X-43229674Y37256616D01*
X-43277187Y37299051D01*
X-43405294Y37410528D01*
X-43509699Y37492646D01*
X-43575354Y37533993D01*
X-43589159Y37535618D01*
X-43604305Y37479253D01*
X-43620993Y37340019D01*
X-43639112Y37119698D01*
X-43658552Y36820072D01*
X-43679202Y36442924D01*
X-43700949Y35990035D01*
X-43723683Y35463187D01*
X-43733458Y35221333D01*
X-43745404Y34839956D01*
X-43754188Y34388466D01*
X-43759887Y33881358D01*
X-43762579Y33333122D01*
X-44277115Y33333122D01*
X-44273297Y33995203D01*
X-44265769Y34600735D01*
X-44254374Y35152581D01*
X-44238925Y35658471D01*
X-44219235Y36126135D01*
X-44195119Y36563305D01*
X-44166389Y36977710D01*
X-44142029Y37274500D01*
X-44115767Y37597497D01*
X-44101063Y37854479D01*
X-44099010Y38063447D01*
X-44110698Y38242404D01*
X-44137219Y38409351D01*
X-44179665Y38582290D01*
X-44231866Y38756296D01*
X-44348844Y39162072D01*
X-44427687Y39527008D01*
X-44473544Y39883032D01*
X-44491570Y40262066D01*
X-44491846Y40301333D01*
X-44003319Y40301333D01*
X-43999870Y40033404D01*
X-43988668Y39825281D01*
X-43967112Y39652257D01*
X-43932602Y39489629D01*
X-43908431Y39400120D01*
X-43741021Y38920851D01*
X-43527514Y38485856D01*
X-43273746Y38101795D01*
X-42985551Y37775323D01*
X-42668767Y37513097D01*
X-42329227Y37321776D01*
X-41990081Y37211585D01*
X-41796548Y37189082D01*
X-41547640Y37186992D01*
X-41269716Y37203638D01*
X-40989134Y37237342D01*
X-40732253Y37286426D01*
X-40703500Y37293465D01*
X-40209584Y37460370D01*
X-39751547Y37700027D01*
X-39337228Y38005609D01*
X-38974469Y38370289D01*
X-38671107Y38787241D01*
X-38434984Y39249638D01*
X-38422847Y39279370D01*
X-38292674Y39602833D01*
X-38294417Y40449500D01*
X-38295818Y40745673D01*
X-38299476Y40971832D01*
X-38306647Y41142621D01*
X-38318589Y41272685D01*
X-38336556Y41376671D01*
X-38361806Y41469225D01*
X-38388479Y41545919D01*
X-38572844Y41958604D01*
X-38808813Y42326379D01*
X-39112329Y42673838D01*
X-39133444Y42694982D01*
X-39471123Y42988114D01*
X-39823002Y43205000D01*
X-40201906Y43350832D01*
X-40620660Y43430805D01*
X-40999833Y43450876D01*
X-41410482Y43429505D01*
X-41792743Y43358801D01*
X-42176218Y43231834D01*
X-42448745Y43111754D01*
X-42818594Y42900921D01*
X-43127805Y42646653D01*
X-43388238Y42336887D01*
X-43611756Y41959556D01*
X-43642040Y41898032D01*
X-43784693Y41583355D01*
X-43885684Y41308670D01*
X-43951391Y41045781D01*
X-43988194Y40766494D01*
X-44002473Y40442614D01*
X-44003319Y40301333D01*
X-44491846Y40301333D01*
X-44492333Y40370342D01*
X-44460578Y40948406D01*
X-44363256Y41477762D01*
X-44197287Y41966838D01*
X-43959587Y42424059D01*
X-43647074Y42857852D01*
X-43534446Y42988974D01*
X-43427959Y43115118D01*
X-43348188Y43222525D01*
X-43309014Y43292110D01*
X-43307190Y43301411D01*
X-43333282Y43366935D01*
X-43398978Y43462226D01*
X-43429660Y43499025D01*
X-43565029Y43687130D01*
X-43660115Y43904091D01*
X-43719164Y44165057D01*
X-43746417Y44485177D01*
X-43749401Y44640500D01*
X-43749089Y44719575D01*
X-43339366Y44719575D01*
X-43315721Y44474882D01*
X-43214624Y44198684D01*
X-43208110Y44185234D01*
X-43122283Y44021670D01*
X-43028002Y43860659D01*
X-42936456Y43719245D01*
X-42858833Y43614473D01*
X-42806325Y43563386D01*
X-42798309Y43561000D01*
X-42753587Y43590714D01*
X-42675317Y43667284D01*
X-42610234Y43739781D01*
X-42485880Y43904856D01*
X-42430565Y44033220D01*
X-42442107Y44133951D01*
X-42499305Y44201791D01*
X-42606465Y44261722D01*
X-42739463Y44304206D01*
X-42749104Y44306054D01*
X-42912539Y44345146D01*
X-43001995Y44393652D01*
X-43028131Y44458799D01*
X-43023077Y44491779D01*
X-42971291Y44562663D01*
X-42872515Y44564464D01*
X-42756666Y44513500D01*
X-42641259Y44466363D01*
X-42536554Y44453730D01*
X-42468519Y44476517D01*
X-42456231Y44502916D01*
X-42455420Y44577834D01*
X-42458691Y44694472D01*
X-42459742Y44718363D01*
X-42458436Y44823807D01*
X-42434702Y44865663D01*
X-42389760Y44866242D01*
X-42333728Y44826521D01*
X-42285803Y44722721D01*
X-42254373Y44608462D01*
X-42205725Y44451882D01*
X-42148945Y44375090D01*
X-42076511Y44373208D01*
X-41987417Y44435394D01*
X-41920871Y44537971D01*
X-41927000Y44664745D01*
X-42006622Y44822871D01*
X-42036674Y44866165D01*
X-42217043Y45063788D01*
X-42418079Y45198157D01*
X-42627410Y45268621D01*
X-42832664Y45274534D01*
X-43021469Y45215244D01*
X-43181453Y45090104D01*
X-43285444Y44931674D01*
X-43339366Y44719575D01*
X-43749089Y44719575D01*
X-43748511Y44865535D01*
X-43741885Y45025867D01*
X-43726860Y45141404D01*
X-43700773Y45232054D01*
X-43660962Y45317726D01*
X-43658106Y45323091D01*
X-43497503Y45548554D01*
X-43294510Y45701654D01*
X-43046842Y45783562D01*
X-42752212Y45795449D01*
X-42738096Y45794379D01*
X-42451286Y45740359D01*
X-42174291Y45621710D01*
X-41895742Y45432385D01*
X-41657839Y45219807D01*
X-41341948Y44910115D01*
X-40811057Y45163901D01*
X-40208658Y45421001D01*
X-39580508Y45626847D01*
X-38916945Y45783329D01*
X-38208309Y45892338D01*
X-37444937Y45955761D01*
X-36660666Y45975510D01*
X-36058845Y45965428D01*
X-35514963Y45932648D01*
X-35004761Y45874760D01*
X-34503977Y45789358D01*
X-34253558Y45736485D01*
X-33960550Y45664451D01*
X-33672765Y45578865D01*
X-33372561Y45473314D01*
X-33042298Y45341389D01*
X-32664335Y45176678D01*
X-32470090Y45088362D01*
X-32269142Y44997079D01*
X-32095313Y44920041D01*
X-31963161Y44863555D01*
X-31887244Y44833923D01*
X-31875761Y44831000D01*
X-31833203Y44859644D01*
X-31747917Y44936328D01*
X-31634931Y45047186D01*
X-31576290Y45107401D01*
X-31305266Y45353997D01*
X-31036397Y45522764D01*
X-30758021Y45619401D01*
X-30467317Y45649617D01*
X-30149813Y45620147D01*
X-29891015Y45529870D01*
X-29690115Y45378013D01*
X-29546305Y45163802D01*
X-29458779Y44886461D01*
X-29430617Y44655170D01*
X-29430275Y44370954D01*
X-29469313Y44103278D01*
X-29553720Y43823821D01*
X-29660727Y43566579D01*
X-29802410Y43254659D01*
X-29471096Y42904649D01*
X-29144549Y42499406D01*
X-28883420Y42047647D01*
X-28688694Y41557786D01*
X-28561355Y41038232D01*
X-28502389Y40497398D01*
X-28512782Y39943695D01*
X-28593518Y39385533D01*
X-28745582Y38831326D01*
X-28938300Y38355452D01*
X-29137615Y37931714D01*
X-29083803Y36227273D01*
X-29073618Y35863203D01*
X-29063571Y35424937D01*
X-29053791Y34922945D01*
X-29044403Y34367698D01*
X-29035534Y33769667D01*
X-29027311Y33139321D01*
X-29019860Y32487132D01*
X-29013309Y31823570D01*
X-29007783Y31159105D01*
X-29003410Y30504208D01*
X-29000316Y29869350D01*
X-28998628Y29265001D01*
X-28998503Y29176921D01*
X-28979039Y29064425D01*
X-28914603Y29011134D01*
X-28795602Y29012658D01*
X-28694689Y29037855D01*
X-28527806Y29118247D01*
X-28352141Y29251494D01*
X-28194627Y29413687D01*
X-28082198Y29580916D01*
X-28081609Y29582097D01*
X-28072248Y29603245D01*
X-28063669Y29629819D01*
X-28055840Y29665405D01*
X-28048729Y29713589D01*
X-28042303Y29777958D01*
X-28036532Y29862099D01*
X-28031382Y29969597D01*
X-28026821Y30104041D01*
X-28022819Y30269015D01*
X-28019342Y30468108D01*
X-28016358Y30704904D01*
X-28013837Y30982992D01*
X-28011745Y31305956D01*
X-28010051Y31677385D01*
X-28008722Y32100864D01*
X-28007727Y32579979D01*
X-28007033Y33118319D01*
X-28006610Y33719468D01*
X-28006423Y34387014D01*
X-28006442Y35124543D01*
X-28006635Y35935641D01*
X-28006969Y36823896D01*
X-28007413Y37792893D01*
X-28007459Y37888333D01*
X-28008247Y39036134D01*
X-28009457Y40099765D01*
X-28011091Y41079721D01*
X-28013153Y41976497D01*
X-28015646Y42790587D01*
X-28018571Y43522489D01*
X-28021933Y44172696D01*
X-28025733Y44741704D01*
X-28029976Y45230008D01*
X-28034663Y45638103D01*
X-28039797Y45966485D01*
X-28045382Y46215648D01*
X-28051421Y46386089D01*
X-28057053Y46470799D01*
X-28093251Y46728083D01*
X-28148009Y46928094D01*
X-28231818Y47079366D01*
X-28355165Y47190435D01*
X-28528538Y47269834D01*
X-28762427Y47326100D01*
X-29067320Y47367767D01*
X-29172575Y47378538D01*
X-29288509Y47385539D01*
X-29483480Y47392058D01*
X-29751862Y47398096D01*
X-30088026Y47403653D01*
X-30486345Y47408728D01*
X-30941192Y47413322D01*
X-31446938Y47417435D01*
X-31997957Y47421066D01*
X-32588621Y47424216D01*
X-33213302Y47426885D01*
X-33866372Y47429072D01*
X-34542205Y47430778D01*
X-35235172Y47432003D01*
X-35939646Y47432747D01*
X-36649999Y47433009D01*
X-37360605Y47432790D01*
X-38065834Y47432089D01*
X-38760060Y47430908D01*
X-39437655Y47429244D01*
X-40092992Y47427100D01*
X-40720443Y47424474D01*
X-41314380Y47421367D01*
X-41869176Y47417779D01*
X-42379204Y47413710D01*
X-42838835Y47409159D01*
X-43242442Y47404126D01*
X-43584398Y47398613D01*
X-43859075Y47392618D01*
X-44060845Y47386142D01*
X-44184082Y47379184D01*
X-44191091Y47378538D01*
X-44518989Y47339551D01*
X-44772781Y47288488D01*
X-44962952Y47216815D01*
X-45099989Y47115998D01*
X-45194378Y46977505D01*
X-45256604Y46792801D01*
X-45297154Y46553354D01*
X-45306531Y46470799D01*
X-45312969Y46367943D01*
X-45318952Y46185901D01*
X-45324484Y45924243D01*
X-45329567Y45582544D01*
X-45334203Y45160375D01*
X-45338394Y44657310D01*
X-45342144Y44072920D01*
X-45345454Y43406778D01*
X-45348327Y42658457D01*
X-45350766Y41827530D01*
X-45352773Y40913569D01*
X-45354350Y39916146D01*
X-45355501Y38834835D01*
X-45356125Y37888333D01*
X-45360166Y29739166D01*
X-49204377Y29739166D01*
X-49203671Y29949334D01*
X-49201538Y30217657D01*
X-49198264Y30490931D01*
X-49193999Y30755875D01*
X-49188895Y30999206D01*
X-49183102Y31207644D01*
X-49176773Y31367907D01*
X-49170059Y31466713D01*
X-49165182Y31492229D01*
X-49121214Y31503949D01*
X-49004171Y31528853D01*
X-48824273Y31564937D01*
X-48591739Y31610198D01*
X-48316787Y31662633D01*
X-48009638Y31720239D01*
X-47868660Y31746387D01*
X-46587833Y31983149D01*
X-46565009Y33719849D01*
X-47927060Y33990851D01*
X-49289112Y34261853D01*
X-49260160Y35427212D01*
X-49251933Y35732570D01*
X-49243248Y36009391D01*
X-49234551Y36246640D01*
X-49226286Y36433286D01*
X-49218898Y36558297D01*
X-49212833Y36610640D01*
X-49212388Y36611389D01*
X-49169552Y36622186D01*
X-49055698Y36646444D01*
X-48882979Y36681793D01*
X-48663552Y36725864D01*
X-48409569Y36776285D01*
X-48133186Y36830686D01*
X-47846558Y36886697D01*
X-47561839Y36941946D01*
X-47291183Y36994063D01*
X-47046746Y37040679D01*
X-46840681Y37079421D01*
X-46685144Y37107920D01*
X-46592289Y37123806D01*
X-46572197Y37126309D01*
X-46566173Y37166209D01*
X-46563261Y37276251D01*
X-46563092Y37441978D01*
X-46565300Y37648937D01*
X-46569515Y37882674D01*
X-46575371Y38128734D01*
X-46582500Y38372662D01*
X-46590533Y38600005D01*
X-46599103Y38796307D01*
X-46607842Y38947114D01*
X-46616383Y39037972D01*
X-46621346Y39057790D01*
X-46669743Y39073986D01*
X-46789790Y39103442D01*
X-46969951Y39143646D01*
X-47198693Y39192085D01*
X-47464479Y39246245D01*
X-47699459Y39292673D01*
X-48000122Y39351358D01*
X-48285468Y39407210D01*
X-48541054Y39457390D01*
X-48752439Y39499057D01*
X-48905178Y39529374D01*
X-48969083Y39542242D01*
X-49191333Y39587669D01*
X-49191333Y41943155D01*
X-49096083Y41966142D01*
X-49028977Y41980385D01*
X-48891435Y42008094D01*
X-48696165Y42046763D01*
X-48455876Y42093885D01*
X-48183279Y42146952D01*
X-47984833Y42185368D01*
X-47689803Y42242518D01*
X-47411314Y42296769D01*
X-47163796Y42345288D01*
X-46961674Y42385241D01*
X-46819379Y42413792D01*
X-46767750Y42424478D01*
X-46566666Y42467349D01*
X-46566666Y43686979D01*
X-46567515Y44059945D01*
X-46570267Y44355512D01*
X-46575232Y44580933D01*
X-46582720Y44743461D01*
X-46593040Y44850349D01*
X-46606504Y44908848D01*
X-46619583Y44925626D01*
X-46673053Y44938345D01*
X-46798933Y44965195D01*
X-46986552Y45003995D01*
X-47225238Y45052564D01*
X-47504321Y45108722D01*
X-47813130Y45170288D01*
X-47932559Y45193956D01*
X-49192618Y45443267D01*
X-49181392Y46628211D01*
X-49170166Y47813154D01*
X-46588054Y48536112D01*
X-46518284Y48683806D01*
X-46438972Y48819700D01*
X-46343545Y48944371D01*
X-46340278Y48947916D01*
X-46232043Y49064333D01*
X-44335605Y49060616D01*
X-43813149Y49058963D01*
X-43278893Y49056099D01*
X-42739710Y49052139D01*
X-42202470Y49047197D01*
X-41674046Y49041390D01*
X-41161310Y49034832D01*
X-40671133Y49027640D01*
X-40210388Y49019927D01*
X-39785946Y49011810D01*
X-39404680Y49003403D01*
X-39073460Y48994823D01*
X-38799160Y48986185D01*
X-38588650Y48977603D01*
X-38448803Y48969193D01*
X-38386491Y48961071D01*
X-38385750Y48960771D01*
X-38323694Y48914488D01*
X-38311666Y48886422D01*
X-38274912Y48786905D01*
X-38174031Y48665786D01*
X-38023097Y48533918D01*
X-37836184Y48402153D01*
X-37627365Y48281342D01*
X-37410714Y48182338D01*
X-37386506Y48173056D01*
X-37022146Y48066266D01*
X-36675801Y48030998D01*
X-36330797Y48068139D01*
X-35970462Y48178573D01*
X-35786681Y48258100D01*
X-35597965Y48359286D01*
X-35416201Y48479085D01*
X-35256444Y48604996D01*
X-35133745Y48724519D01*
X-35063157Y48825154D01*
X-35052000Y48868190D01*
X-35017816Y48933747D01*
X-34977916Y48960771D01*
X-34918656Y48968883D01*
X-34781598Y48977286D01*
X-34573613Y48985864D01*
X-34301569Y48994503D01*
X-33972336Y49003087D01*
X-33592782Y49011502D01*
X-33169776Y49019631D01*
X-32710188Y49027360D01*
X-32220886Y49034574D01*
X-31708740Y49041157D01*
X-31180618Y49046993D01*
X-30643389Y49051969D01*
X-30103923Y49055968D01*
X-29569089Y49058875D01*
X-29045755Y49060576D01*
X-29025901Y49060616D01*
X-27127302Y49064333D01*
X-27002579Y48930816D01*
G36*
X-37001182Y32260031D02*
G01*
X-36921366Y32184425D01*
X-36853105Y32052713D01*
X-36789124Y31855146D01*
X-36730870Y31620317D01*
X-36683335Y31407731D01*
X-36640451Y31206182D01*
X-36607499Y31041059D01*
X-36591708Y30951400D01*
X-36574637Y30861042D01*
X-36556174Y30821129D01*
X-36533655Y30837665D01*
X-36504419Y30916654D01*
X-36465804Y31064101D01*
X-36415148Y31286011D01*
X-36387808Y31411333D01*
X-36340297Y31628629D01*
X-36295255Y31830472D01*
X-36257728Y31994510D01*
X-36232760Y32098390D01*
X-36232539Y32099250D01*
X-36191736Y32258000D01*
X-35918201Y32258000D01*
X-35768285Y32254728D01*
X-35684915Y32241664D01*
X-35650118Y32213933D01*
X-35645028Y32183916D01*
X-35656961Y32103460D01*
X-35689672Y31956347D01*
X-35739153Y31756881D01*
X-35801395Y31519363D01*
X-35872389Y31258093D01*
X-35948125Y30987374D01*
X-36024595Y30721507D01*
X-36097790Y30474793D01*
X-36163701Y30261534D01*
X-36218319Y30096032D01*
X-36257634Y29992587D01*
X-36261819Y29983605D01*
X-36410229Y29762549D01*
X-36605522Y29611817D01*
X-36846995Y29531700D01*
X-37133944Y29522494D01*
X-37306717Y29546947D01*
X-37416094Y29573087D01*
X-37484987Y29598639D01*
X-37491376Y29603264D01*
X-37495021Y29655309D01*
X-37474715Y29757244D01*
X-37459158Y29810936D01*
X-37401500Y29993166D01*
X-37138424Y29978775D01*
X-36989044Y29974142D01*
X-36895057Y29986001D01*
X-36827617Y30022350D01*
X-36766423Y30081916D01*
X-36685268Y30196560D01*
X-36683169Y30282547D01*
X-36760709Y30342995D01*
X-36818504Y30361866D01*
X-36924930Y30407445D01*
X-36992979Y30468545D01*
X-36993989Y30470374D01*
X-37024811Y30548778D01*
X-37068667Y30687551D01*
X-37121809Y30871919D01*
X-37180488Y31087105D01*
X-37240959Y31318334D01*
X-37299473Y31550831D01*
X-37352283Y31769821D01*
X-37395642Y31960527D01*
X-37425801Y32108174D01*
X-37439014Y32197987D01*
X-37437234Y32217982D01*
X-37375781Y32246543D01*
X-37265587Y32274599D01*
X-37224589Y32281930D01*
X-37099831Y32289282D01*
X-37001182Y32260031D01*
G37*
X-37001182Y32260031D02*
X-36921366Y32184425D01*
X-36853105Y32052713D01*
X-36789124Y31855146D01*
X-36730870Y31620317D01*
X-36683335Y31407731D01*
X-36640451Y31206182D01*
X-36607499Y31041059D01*
X-36591708Y30951400D01*
X-36574637Y30861042D01*
X-36556174Y30821129D01*
X-36533655Y30837665D01*
X-36504419Y30916654D01*
X-36465804Y31064101D01*
X-36415148Y31286011D01*
X-36387808Y31411333D01*
X-36340297Y31628629D01*
X-36295255Y31830472D01*
X-36257728Y31994510D01*
X-36232760Y32098390D01*
X-36232539Y32099250D01*
X-36191736Y32258000D01*
X-35918201Y32258000D01*
X-35768285Y32254728D01*
X-35684915Y32241664D01*
X-35650118Y32213933D01*
X-35645028Y32183916D01*
X-35656961Y32103460D01*
X-35689672Y31956347D01*
X-35739153Y31756881D01*
X-35801395Y31519363D01*
X-35872389Y31258093D01*
X-35948125Y30987374D01*
X-36024595Y30721507D01*
X-36097790Y30474793D01*
X-36163701Y30261534D01*
X-36218319Y30096032D01*
X-36257634Y29992587D01*
X-36261819Y29983605D01*
X-36410229Y29762549D01*
X-36605522Y29611817D01*
X-36846995Y29531700D01*
X-37133944Y29522494D01*
X-37306717Y29546947D01*
X-37416094Y29573087D01*
X-37484987Y29598639D01*
X-37491376Y29603264D01*
X-37495021Y29655309D01*
X-37474715Y29757244D01*
X-37459158Y29810936D01*
X-37401500Y29993166D01*
X-37138424Y29978775D01*
X-36989044Y29974142D01*
X-36895057Y29986001D01*
X-36827617Y30022350D01*
X-36766423Y30081916D01*
X-36685268Y30196560D01*
X-36683169Y30282547D01*
X-36760709Y30342995D01*
X-36818504Y30361866D01*
X-36924930Y30407445D01*
X-36992979Y30468545D01*
X-36993989Y30470374D01*
X-37024811Y30548778D01*
X-37068667Y30687551D01*
X-37121809Y30871919D01*
X-37180488Y31087105D01*
X-37240959Y31318334D01*
X-37299473Y31550831D01*
X-37352283Y31769821D01*
X-37395642Y31960527D01*
X-37425801Y32108174D01*
X-37439014Y32197987D01*
X-37437234Y32217982D01*
X-37375781Y32246543D01*
X-37265587Y32274599D01*
X-37224589Y32281930D01*
X-37099831Y32289282D01*
X-37001182Y32260031D01*
G36*
X-39002801Y32266346D02*
G01*
X-38872886Y32207280D01*
X-38822177Y32166276D01*
X-38740356Y32078451D01*
X-38584344Y32174872D01*
X-38405544Y32249008D01*
X-38208004Y32274434D01*
X-38026269Y32248468D01*
X-37965441Y32222932D01*
X-37874677Y32163534D01*
X-37806140Y32087330D01*
X-37756251Y31981869D01*
X-37721434Y31834702D01*
X-37698108Y31633378D01*
X-37682696Y31365449D01*
X-37677421Y31220833D01*
X-37667869Y30987010D01*
X-37655729Y30781193D01*
X-37642217Y30619087D01*
X-37628554Y30516395D01*
X-37620703Y30489696D01*
X-37624937Y30439446D01*
X-37706621Y30386082D01*
X-37735760Y30373279D01*
X-37868303Y30325916D01*
X-37967366Y30318214D01*
X-38073017Y30347892D01*
X-38086649Y30353295D01*
X-38156974Y30393533D01*
X-38207089Y30457288D01*
X-38240175Y30557626D01*
X-38259411Y30707608D01*
X-38267979Y30920299D01*
X-38269333Y31103750D01*
X-38273389Y31375668D01*
X-38285660Y31565155D01*
X-38306305Y31674063D01*
X-38320133Y31699200D01*
X-38421463Y31745796D01*
X-38550270Y31730550D01*
X-38640914Y31684099D01*
X-38677202Y31654591D01*
X-38702725Y31615975D01*
X-38719371Y31554231D01*
X-38729030Y31455340D01*
X-38733589Y31305281D01*
X-38734937Y31090035D01*
X-38735000Y30985599D01*
X-38735000Y30353000D01*
X-39327666Y30353000D01*
X-39327666Y31306828D01*
X-39326948Y31620704D01*
X-39324359Y31859924D01*
X-39319247Y32034490D01*
X-39310958Y32154404D01*
X-39298842Y32229669D01*
X-39282244Y32270285D01*
X-39263848Y32285147D01*
X-39146668Y32295947D01*
X-39002801Y32266346D01*
G37*
X-39002801Y32266346D02*
X-38872886Y32207280D01*
X-38822177Y32166276D01*
X-38740356Y32078451D01*
X-38584344Y32174872D01*
X-38405544Y32249008D01*
X-38208004Y32274434D01*
X-38026269Y32248468D01*
X-37965441Y32222932D01*
X-37874677Y32163534D01*
X-37806140Y32087330D01*
X-37756251Y31981869D01*
X-37721434Y31834702D01*
X-37698108Y31633378D01*
X-37682696Y31365449D01*
X-37677421Y31220833D01*
X-37667869Y30987010D01*
X-37655729Y30781193D01*
X-37642217Y30619087D01*
X-37628554Y30516395D01*
X-37620703Y30489696D01*
X-37624937Y30439446D01*
X-37706621Y30386082D01*
X-37735760Y30373279D01*
X-37868303Y30325916D01*
X-37967366Y30318214D01*
X-38073017Y30347892D01*
X-38086649Y30353295D01*
X-38156974Y30393533D01*
X-38207089Y30457288D01*
X-38240175Y30557626D01*
X-38259411Y30707608D01*
X-38267979Y30920299D01*
X-38269333Y31103750D01*
X-38273389Y31375668D01*
X-38285660Y31565155D01*
X-38306305Y31674063D01*
X-38320133Y31699200D01*
X-38421463Y31745796D01*
X-38550270Y31730550D01*
X-38640914Y31684099D01*
X-38677202Y31654591D01*
X-38702725Y31615975D01*
X-38719371Y31554231D01*
X-38729030Y31455340D01*
X-38733589Y31305281D01*
X-38734937Y31090035D01*
X-38735000Y30985599D01*
X-38735000Y30353000D01*
X-39327666Y30353000D01*
X-39327666Y31306828D01*
X-39326948Y31620704D01*
X-39324359Y31859924D01*
X-39319247Y32034490D01*
X-39310958Y32154404D01*
X-39298842Y32229669D01*
X-39282244Y32270285D01*
X-39263848Y32285147D01*
X-39146668Y32295947D01*
X-39002801Y32266346D01*
G36*
X-33928565Y32977334D02*
G01*
X-33763299Y32934551D01*
X-33599442Y32878115D01*
X-33456999Y32816681D01*
X-33355971Y32758902D01*
X-33316364Y32713434D01*
X-33316333Y32712448D01*
X-33341958Y32628433D01*
X-33406539Y32514477D01*
X-33491637Y32402881D01*
X-33495482Y32398621D01*
X-33579383Y32306409D01*
X-33743588Y32391998D01*
X-33940693Y32465858D01*
X-34154284Y32499476D01*
X-34355946Y32491412D01*
X-34517264Y32440227D01*
X-34531361Y32431880D01*
X-34653269Y32336561D01*
X-34736994Y32220050D01*
X-34788512Y32065987D01*
X-34813802Y31858013D01*
X-34819166Y31644166D01*
X-34810345Y31381364D01*
X-34779945Y31185645D01*
X-34722063Y31040890D01*
X-34630796Y30930978D01*
X-34531361Y30858277D01*
X-34415918Y30805758D01*
X-34275606Y30784948D01*
X-34141833Y30786066D01*
X-33887833Y30797500D01*
X-33875230Y31062083D01*
X-33862626Y31326666D01*
X-34025889Y31326666D01*
X-34189606Y31344619D01*
X-34285670Y31405505D01*
X-34324650Y31519864D01*
X-34324626Y31624535D01*
X-34311166Y31813500D01*
X-33919252Y31825676D01*
X-33732700Y31829935D01*
X-33609939Y31826110D01*
X-33530194Y31810304D01*
X-33472691Y31778618D01*
X-33421835Y31732350D01*
X-33379928Y31686889D01*
X-33350899Y31638402D01*
X-33332389Y31571338D01*
X-33322036Y31470141D01*
X-33317478Y31319258D01*
X-33316354Y31103134D01*
X-33316333Y31037407D01*
X-33316333Y30447965D01*
X-33496250Y30398244D01*
X-33630425Y30372556D01*
X-33816282Y30351774D01*
X-34031195Y30336757D01*
X-34252536Y30328362D01*
X-34457680Y30327448D01*
X-34624000Y30334874D01*
X-34728842Y30351488D01*
X-34973913Y30473521D01*
X-35173460Y30664554D01*
X-35324238Y30920231D01*
X-35422996Y31236194D01*
X-35434909Y31298625D01*
X-35465258Y31666290D01*
X-35427767Y32003387D01*
X-35328513Y32303143D01*
X-35173574Y32558786D01*
X-34969029Y32763542D01*
X-34720953Y32910639D01*
X-34435425Y32993303D01*
X-34118523Y33004762D01*
X-33928565Y32977334D01*
G37*
X-33928565Y32977334D02*
X-33763299Y32934551D01*
X-33599442Y32878115D01*
X-33456999Y32816681D01*
X-33355971Y32758902D01*
X-33316364Y32713434D01*
X-33316333Y32712448D01*
X-33341958Y32628433D01*
X-33406539Y32514477D01*
X-33491637Y32402881D01*
X-33495482Y32398621D01*
X-33579383Y32306409D01*
X-33743588Y32391998D01*
X-33940693Y32465858D01*
X-34154284Y32499476D01*
X-34355946Y32491412D01*
X-34517264Y32440227D01*
X-34531361Y32431880D01*
X-34653269Y32336561D01*
X-34736994Y32220050D01*
X-34788512Y32065987D01*
X-34813802Y31858013D01*
X-34819166Y31644166D01*
X-34810345Y31381364D01*
X-34779945Y31185645D01*
X-34722063Y31040890D01*
X-34630796Y30930978D01*
X-34531361Y30858277D01*
X-34415918Y30805758D01*
X-34275606Y30784948D01*
X-34141833Y30786066D01*
X-33887833Y30797500D01*
X-33875230Y31062083D01*
X-33862626Y31326666D01*
X-34025889Y31326666D01*
X-34189606Y31344619D01*
X-34285670Y31405505D01*
X-34324650Y31519864D01*
X-34324626Y31624535D01*
X-34311166Y31813500D01*
X-33919252Y31825676D01*
X-33732700Y31829935D01*
X-33609939Y31826110D01*
X-33530194Y31810304D01*
X-33472691Y31778618D01*
X-33421835Y31732350D01*
X-33379928Y31686889D01*
X-33350899Y31638402D01*
X-33332389Y31571338D01*
X-33322036Y31470141D01*
X-33317478Y31319258D01*
X-33316354Y31103134D01*
X-33316333Y31037407D01*
X-33316333Y30447965D01*
X-33496250Y30398244D01*
X-33630425Y30372556D01*
X-33816282Y30351774D01*
X-34031195Y30336757D01*
X-34252536Y30328362D01*
X-34457680Y30327448D01*
X-34624000Y30334874D01*
X-34728842Y30351488D01*
X-34973913Y30473521D01*
X-35173460Y30664554D01*
X-35324238Y30920231D01*
X-35422996Y31236194D01*
X-35434909Y31298625D01*
X-35465258Y31666290D01*
X-35427767Y32003387D01*
X-35328513Y32303143D01*
X-35173574Y32558786D01*
X-34969029Y32763542D01*
X-34720953Y32910639D01*
X-34435425Y32993303D01*
X-34118523Y33004762D01*
X-33928565Y32977334D01*
G36*
X-31839695Y32264192D02*
G01*
X-31615055Y32159471D01*
X-31439857Y31991720D01*
X-31318370Y31766493D01*
X-31254867Y31489339D01*
X-31251932Y31185518D01*
X-31309499Y30888167D01*
X-31428560Y30641721D01*
X-31605857Y30452900D01*
X-31608092Y30451189D01*
X-31708693Y30384830D01*
X-31812793Y30346482D01*
X-31951612Y30327235D01*
X-32063566Y30321186D01*
X-32277496Y30324338D01*
X-32441792Y30350025D01*
X-32491620Y30367453D01*
X-32644897Y30471060D01*
X-32789262Y30625981D01*
X-32898199Y30800712D01*
X-32932788Y30891593D01*
X-32965147Y31081660D01*
X-32975233Y31305500D01*
X-32363833Y31305500D01*
X-32360966Y31109689D01*
X-32350173Y30978754D01*
X-32328166Y30893033D01*
X-32291659Y30832863D01*
X-32283189Y30823111D01*
X-32170947Y30745395D01*
X-32054720Y30751849D01*
X-31966272Y30814061D01*
X-31904068Y30922416D01*
X-31862136Y31088507D01*
X-31844365Y31287003D01*
X-31854646Y31492574D01*
X-31858175Y31518026D01*
X-31907966Y31696495D01*
X-31988572Y31816561D01*
X-32089244Y31871397D01*
X-32199234Y31854181D01*
X-32283189Y31787889D01*
X-32322692Y31730256D01*
X-32347095Y31650655D01*
X-32359686Y31529423D01*
X-32363753Y31346898D01*
X-32363833Y31305500D01*
X-32975233Y31305500D01*
X-32975528Y31312036D01*
X-32963933Y31541268D01*
X-32932788Y31719407D01*
X-32852189Y31895047D01*
X-32721441Y32064441D01*
X-32566594Y32197304D01*
X-32482271Y32243139D01*
X-32359623Y32276168D01*
X-32199011Y32296828D01*
X-32109506Y32300333D01*
X-31839695Y32264192D01*
G37*
X-31839695Y32264192D02*
X-31615055Y32159471D01*
X-31439857Y31991720D01*
X-31318370Y31766493D01*
X-31254867Y31489339D01*
X-31251932Y31185518D01*
X-31309499Y30888167D01*
X-31428560Y30641721D01*
X-31605857Y30452900D01*
X-31608092Y30451189D01*
X-31708693Y30384830D01*
X-31812793Y30346482D01*
X-31951612Y30327235D01*
X-32063566Y30321186D01*
X-32277496Y30324338D01*
X-32441792Y30350025D01*
X-32491620Y30367453D01*
X-32644897Y30471060D01*
X-32789262Y30625981D01*
X-32898199Y30800712D01*
X-32932788Y30891593D01*
X-32965147Y31081660D01*
X-32975233Y31305500D01*
X-32363833Y31305500D01*
X-32360966Y31109689D01*
X-32350173Y30978754D01*
X-32328166Y30893033D01*
X-32291659Y30832863D01*
X-32283189Y30823111D01*
X-32170947Y30745395D01*
X-32054720Y30751849D01*
X-31966272Y30814061D01*
X-31904068Y30922416D01*
X-31862136Y31088507D01*
X-31844365Y31287003D01*
X-31854646Y31492574D01*
X-31858175Y31518026D01*
X-31907966Y31696495D01*
X-31988572Y31816561D01*
X-32089244Y31871397D01*
X-32199234Y31854181D01*
X-32283189Y31787889D01*
X-32322692Y31730256D01*
X-32347095Y31650655D01*
X-32359686Y31529423D01*
X-32363753Y31346898D01*
X-32363833Y31305500D01*
X-32975233Y31305500D01*
X-32975528Y31312036D01*
X-32963933Y31541268D01*
X-32932788Y31719407D01*
X-32852189Y31895047D01*
X-32721441Y32064441D01*
X-32566594Y32197304D01*
X-32482271Y32243139D01*
X-32359623Y32276168D01*
X-32199011Y32296828D01*
X-32109506Y32300333D01*
X-31839695Y32264192D01*
G36*
X-41630304Y32935333D02*
G01*
X-40682333Y32935333D01*
X-40682333Y32769024D01*
X-40697828Y32627375D01*
X-40753091Y32536845D01*
X-40861285Y32487705D01*
X-41035576Y32470230D01*
X-41087524Y32469666D01*
X-41359666Y32469666D01*
X-41359666Y30353000D01*
X-41952333Y30353000D01*
X-41952333Y32469666D01*
X-42265304Y32469666D01*
X-42441620Y32474202D01*
X-42549811Y32494778D01*
X-42606234Y32541845D01*
X-42627247Y32625858D01*
X-42629666Y32702500D01*
X-42629070Y32776056D01*
X-42620582Y32832229D01*
X-42594150Y32873360D01*
X-42539724Y32901790D01*
X-42447254Y32919860D01*
X-42306689Y32929914D01*
X-42107979Y32934291D01*
X-41841074Y32935334D01*
X-41630304Y32935333D01*
G37*
X-41630304Y32935333D02*
X-40682333Y32935333D01*
X-40682333Y32769024D01*
X-40697828Y32627375D01*
X-40753091Y32536845D01*
X-40861285Y32487705D01*
X-41035576Y32470230D01*
X-41087524Y32469666D01*
X-41359666Y32469666D01*
X-41359666Y30353000D01*
X-41952333Y30353000D01*
X-41952333Y32469666D01*
X-42265304Y32469666D01*
X-42441620Y32474202D01*
X-42549811Y32494778D01*
X-42606234Y32541845D01*
X-42627247Y32625858D01*
X-42629666Y32702500D01*
X-42629070Y32776056D01*
X-42620582Y32832229D01*
X-42594150Y32873360D01*
X-42539724Y32901790D01*
X-42447254Y32919860D01*
X-42306689Y32929914D01*
X-42107979Y32934291D01*
X-41841074Y32935334D01*
X-41630304Y32935333D01*
G36*
X-40141825Y32252251D02*
G01*
X-40015635Y32228968D01*
X-39919920Y32179099D01*
X-39850514Y32093590D01*
X-39803246Y31963388D01*
X-39773949Y31779440D01*
X-39758455Y31532693D01*
X-39752594Y31214094D01*
X-39752010Y31062083D01*
X-39751000Y30353000D01*
X-40384001Y30353000D01*
X-40395584Y31083250D01*
X-40400133Y31347551D01*
X-40405242Y31539175D01*
X-40412601Y31670101D01*
X-40423899Y31752313D01*
X-40440825Y31797789D01*
X-40465068Y31818513D01*
X-40498318Y31826464D01*
X-40500415Y31826765D01*
X-40590697Y31876622D01*
X-40630351Y31986667D01*
X-40618624Y32131951D01*
X-40600451Y32198498D01*
X-40568997Y32236190D01*
X-40503705Y32253228D01*
X-40384017Y32257814D01*
X-40302659Y32258000D01*
X-40141825Y32252251D01*
G37*
X-40141825Y32252251D02*
X-40015635Y32228968D01*
X-39919920Y32179099D01*
X-39850514Y32093590D01*
X-39803246Y31963388D01*
X-39773949Y31779440D01*
X-39758455Y31532693D01*
X-39752594Y31214094D01*
X-39752010Y31062083D01*
X-39751000Y30353000D01*
X-40384001Y30353000D01*
X-40395584Y31083250D01*
X-40400133Y31347551D01*
X-40405242Y31539175D01*
X-40412601Y31670101D01*
X-40423899Y31752313D01*
X-40440825Y31797789D01*
X-40465068Y31818513D01*
X-40498318Y31826464D01*
X-40500415Y31826765D01*
X-40590697Y31876622D01*
X-40630351Y31986667D01*
X-40618624Y32131951D01*
X-40600451Y32198498D01*
X-40568997Y32236190D01*
X-40503705Y32253228D01*
X-40384017Y32257814D01*
X-40302659Y32258000D01*
X-40141825Y32252251D01*
G36*
X-40018818Y33052903D02*
G01*
X-39916830Y33028870D01*
X-39886466Y33011533D01*
X-39852291Y32933492D01*
X-39837563Y32812758D01*
X-39843989Y32689424D01*
X-39869333Y32609240D01*
X-39932413Y32571160D01*
X-40047102Y32542985D01*
X-40180488Y32529657D01*
X-40299660Y32536120D01*
X-40322500Y32541168D01*
X-40412300Y32586061D01*
X-40457655Y32671864D01*
X-40470018Y32810450D01*
X-40454839Y32941455D01*
X-40398124Y33019229D01*
X-40285201Y33055437D01*
X-40153166Y33062333D01*
X-40018818Y33052903D01*
G37*
X-40018818Y33052903D02*
X-39916830Y33028870D01*
X-39886466Y33011533D01*
X-39852291Y32933492D01*
X-39837563Y32812758D01*
X-39843989Y32689424D01*
X-39869333Y32609240D01*
X-39932413Y32571160D01*
X-40047102Y32542985D01*
X-40180488Y32529657D01*
X-40299660Y32536120D01*
X-40322500Y32541168D01*
X-40412300Y32586061D01*
X-40457655Y32671864D01*
X-40470018Y32810450D01*
X-40454839Y32941455D01*
X-40398124Y33019229D01*
X-40285201Y33055437D01*
X-40153166Y33062333D01*
X-40018818Y33052903D01*
G36*
X-36415211Y39400824D02*
G01*
X-36212874Y39367984D01*
X-36063443Y39297010D01*
X-35945329Y39172394D01*
X-35841888Y38989000D01*
X-35750969Y38845976D01*
X-35639649Y38733184D01*
X-35611564Y38713833D01*
X-35429494Y38600288D01*
X-35304908Y38513840D01*
X-35221351Y38440341D01*
X-35162364Y38365642D01*
X-35119182Y38290500D01*
X-35072289Y38180021D01*
X-35044851Y38053676D01*
X-35032629Y37885405D01*
X-35030833Y37747497D01*
X-35030833Y37373827D01*
X-35188961Y37228914D01*
X-35344479Y37117488D01*
X-35470022Y37084000D01*
X-35593383Y37067013D01*
X-35682432Y37008231D01*
X-35744872Y36895924D01*
X-35788402Y36718359D01*
X-35809720Y36566551D01*
X-35847227Y36307457D01*
X-35897711Y36120219D01*
X-35973315Y35992032D01*
X-36086182Y35910090D01*
X-36248454Y35861586D01*
X-36472275Y35833715D01*
X-36507286Y35830880D01*
X-36680164Y35821945D01*
X-36802814Y35831109D01*
X-36908673Y35863499D01*
X-36996855Y35905957D01*
X-37149639Y35999160D01*
X-37253690Y36102459D01*
X-37319668Y36235509D01*
X-37358233Y36417966D01*
X-37375993Y36605040D01*
X-37385448Y36731382D01*
X-37126333Y36731382D01*
X-37111044Y36485368D01*
X-37063236Y36307032D01*
X-36992979Y36197932D01*
X-36890637Y36121806D01*
X-36803722Y36127963D01*
X-36744179Y36197157D01*
X-36718179Y36279370D01*
X-36522451Y36279370D01*
X-36509620Y36201415D01*
X-36481692Y36150414D01*
X-36467572Y36134953D01*
X-36358660Y36076678D01*
X-36241372Y36089593D01*
X-36142403Y36167824D01*
X-36115663Y36212377D01*
X-36085585Y36316373D01*
X-36062724Y36471812D01*
X-36051923Y36645507D01*
X-36051850Y36649761D01*
X-36051988Y36815628D01*
X-36062630Y36920124D01*
X-36089334Y36986398D01*
X-36137659Y37037600D01*
X-36146773Y37045133D01*
X-36269816Y37114205D01*
X-36374453Y37114712D01*
X-36442150Y37052250D01*
X-36462411Y36978367D01*
X-36483902Y36843785D01*
X-36503114Y36672338D01*
X-36509867Y36592335D01*
X-36521946Y36403328D01*
X-36522451Y36279370D01*
X-36718179Y36279370D01*
X-36709964Y36305342D01*
X-36685314Y36465529D01*
X-36672247Y36646005D01*
X-36672779Y36815054D01*
X-36688925Y36940963D01*
X-36695565Y36961796D01*
X-36766389Y37066636D01*
X-36857781Y37102804D01*
X-36954603Y37078397D01*
X-37041716Y37001514D01*
X-37103983Y36880251D01*
X-37126333Y36731382D01*
X-37385448Y36731382D01*
X-37389323Y36783158D01*
X-37403408Y36893283D01*
X-37424023Y36951941D01*
X-37456941Y36975655D01*
X-37507333Y36980937D01*
X-37683853Y37003871D01*
X-37831696Y37071822D01*
X-37979595Y37199250D01*
X-38014548Y37236218D01*
X-38195190Y37432191D01*
X-38175150Y37744450D01*
X-38175016Y37745222D01*
X-37879787Y37745222D01*
X-37863665Y37590388D01*
X-37847288Y37552073D01*
X-37789098Y37467178D01*
X-37711387Y37408401D01*
X-37600555Y37372726D01*
X-37443003Y37357139D01*
X-37225131Y37358624D01*
X-37020500Y37368735D01*
X-36753705Y37381035D01*
X-36460781Y37388780D01*
X-36181540Y37391184D01*
X-35999599Y37388868D01*
X-35793016Y37384288D01*
X-35652025Y37385824D01*
X-35557603Y37396596D01*
X-35490730Y37419727D01*
X-35432382Y37458340D01*
X-35396349Y37487881D01*
X-35310655Y37581549D01*
X-35265926Y37673004D01*
X-35263903Y37691013D01*
X-35298995Y37908411D01*
X-35391935Y38119698D01*
X-35496630Y38256763D01*
X-35587479Y38338103D01*
X-35672613Y38379865D01*
X-35787105Y38394857D01*
X-35878853Y38396333D01*
X-36084787Y38378581D01*
X-36242697Y38320764D01*
X-36264546Y38307930D01*
X-36440835Y38246319D01*
X-36679017Y38240320D01*
X-36977195Y38289872D01*
X-37148127Y38335442D01*
X-37296370Y38375339D01*
X-37394451Y38387828D01*
X-37471905Y38374081D01*
X-37527547Y38350498D01*
X-37658447Y38250403D01*
X-37767343Y38099788D01*
X-37844401Y37923208D01*
X-37879787Y37745222D01*
X-38175016Y37745222D01*
X-38121701Y38051232D01*
X-38002782Y38305842D01*
X-37816183Y38512379D01*
X-37724401Y38580910D01*
X-37549793Y38741415D01*
X-37458481Y38899098D01*
X-37344800Y39111838D01*
X-37208012Y39255154D01*
X-37031048Y39344076D01*
X-36919828Y39373322D01*
X-36739843Y39397178D01*
X-36533824Y39405306D01*
X-36415211Y39400824D01*
G37*
X-36415211Y39400824D02*
X-36212874Y39367984D01*
X-36063443Y39297010D01*
X-35945329Y39172394D01*
X-35841888Y38989000D01*
X-35750969Y38845976D01*
X-35639649Y38733184D01*
X-35611564Y38713833D01*
X-35429494Y38600288D01*
X-35304908Y38513840D01*
X-35221351Y38440341D01*
X-35162364Y38365642D01*
X-35119182Y38290500D01*
X-35072289Y38180021D01*
X-35044851Y38053676D01*
X-35032629Y37885405D01*
X-35030833Y37747497D01*
X-35030833Y37373827D01*
X-35188961Y37228914D01*
X-35344479Y37117488D01*
X-35470022Y37084000D01*
X-35593383Y37067013D01*
X-35682432Y37008231D01*
X-35744872Y36895924D01*
X-35788402Y36718359D01*
X-35809720Y36566551D01*
X-35847227Y36307457D01*
X-35897711Y36120219D01*
X-35973315Y35992032D01*
X-36086182Y35910090D01*
X-36248454Y35861586D01*
X-36472275Y35833715D01*
X-36507286Y35830880D01*
X-36680164Y35821945D01*
X-36802814Y35831109D01*
X-36908673Y35863499D01*
X-36996855Y35905957D01*
X-37149639Y35999160D01*
X-37253690Y36102459D01*
X-37319668Y36235509D01*
X-37358233Y36417966D01*
X-37375993Y36605040D01*
X-37385448Y36731382D01*
X-37126333Y36731382D01*
X-37111044Y36485368D01*
X-37063236Y36307032D01*
X-36992979Y36197932D01*
X-36890637Y36121806D01*
X-36803722Y36127963D01*
X-36744179Y36197157D01*
X-36718179Y36279370D01*
X-36522451Y36279370D01*
X-36509620Y36201415D01*
X-36481692Y36150414D01*
X-36467572Y36134953D01*
X-36358660Y36076678D01*
X-36241372Y36089593D01*
X-36142403Y36167824D01*
X-36115663Y36212377D01*
X-36085585Y36316373D01*
X-36062724Y36471812D01*
X-36051923Y36645507D01*
X-36051850Y36649761D01*
X-36051988Y36815628D01*
X-36062630Y36920124D01*
X-36089334Y36986398D01*
X-36137659Y37037600D01*
X-36146773Y37045133D01*
X-36269816Y37114205D01*
X-36374453Y37114712D01*
X-36442150Y37052250D01*
X-36462411Y36978367D01*
X-36483902Y36843785D01*
X-36503114Y36672338D01*
X-36509867Y36592335D01*
X-36521946Y36403328D01*
X-36522451Y36279370D01*
X-36718179Y36279370D01*
X-36709964Y36305342D01*
X-36685314Y36465529D01*
X-36672247Y36646005D01*
X-36672779Y36815054D01*
X-36688925Y36940963D01*
X-36695565Y36961796D01*
X-36766389Y37066636D01*
X-36857781Y37102804D01*
X-36954603Y37078397D01*
X-37041716Y37001514D01*
X-37103983Y36880251D01*
X-37126333Y36731382D01*
X-37385448Y36731382D01*
X-37389323Y36783158D01*
X-37403408Y36893283D01*
X-37424023Y36951941D01*
X-37456941Y36975655D01*
X-37507333Y36980937D01*
X-37683853Y37003871D01*
X-37831696Y37071822D01*
X-37979595Y37199250D01*
X-38014548Y37236218D01*
X-38195190Y37432191D01*
X-38175150Y37744450D01*
X-38175016Y37745222D01*
X-37879787Y37745222D01*
X-37863665Y37590388D01*
X-37847288Y37552073D01*
X-37789098Y37467178D01*
X-37711387Y37408401D01*
X-37600555Y37372726D01*
X-37443003Y37357139D01*
X-37225131Y37358624D01*
X-37020500Y37368735D01*
X-36753705Y37381035D01*
X-36460781Y37388780D01*
X-36181540Y37391184D01*
X-35999599Y37388868D01*
X-35793016Y37384288D01*
X-35652025Y37385824D01*
X-35557603Y37396596D01*
X-35490730Y37419727D01*
X-35432382Y37458340D01*
X-35396349Y37487881D01*
X-35310655Y37581549D01*
X-35265926Y37673004D01*
X-35263903Y37691013D01*
X-35298995Y37908411D01*
X-35391935Y38119698D01*
X-35496630Y38256763D01*
X-35587479Y38338103D01*
X-35672613Y38379865D01*
X-35787105Y38394857D01*
X-35878853Y38396333D01*
X-36084787Y38378581D01*
X-36242697Y38320764D01*
X-36264546Y38307930D01*
X-36440835Y38246319D01*
X-36679017Y38240320D01*
X-36977195Y38289872D01*
X-37148127Y38335442D01*
X-37296370Y38375339D01*
X-37394451Y38387828D01*
X-37471905Y38374081D01*
X-37527547Y38350498D01*
X-37658447Y38250403D01*
X-37767343Y38099788D01*
X-37844401Y37923208D01*
X-37879787Y37745222D01*
X-38175016Y37745222D01*
X-38121701Y38051232D01*
X-38002782Y38305842D01*
X-37816183Y38512379D01*
X-37724401Y38580910D01*
X-37549793Y38741415D01*
X-37458481Y38899098D01*
X-37344800Y39111838D01*
X-37208012Y39255154D01*
X-37031048Y39344076D01*
X-36919828Y39373322D01*
X-36739843Y39397178D01*
X-36533824Y39405306D01*
X-36415211Y39400824D01*
G36*
X-41043082Y42981709D02*
G01*
X-40840345Y42894050D01*
X-40684934Y42745110D01*
X-40637511Y42667121D01*
X-40572769Y42463737D01*
X-40554488Y42220665D01*
X-40580948Y41967838D01*
X-40650429Y41735190D01*
X-40696336Y41643238D01*
X-40857991Y41435838D01*
X-41052381Y41300609D01*
X-41269684Y41241024D01*
X-41500080Y41260554D01*
X-41637828Y41310427D01*
X-41837642Y41444186D01*
X-42001008Y41631165D01*
X-42117668Y41851199D01*
X-42177362Y42084123D01*
X-42169833Y42309773D01*
X-42162347Y42341466D01*
X-42083004Y42511755D01*
X-42079053Y42516752D01*
X-41879685Y42516752D01*
X-41871527Y42491654D01*
X-41796181Y42376410D01*
X-41691301Y42339645D01*
X-41563066Y42383075D01*
X-41538419Y42399234D01*
X-41459231Y42498084D01*
X-41454992Y42617347D01*
X-41514394Y42721583D01*
X-41618529Y42788018D01*
X-41727963Y42787337D01*
X-41821858Y42732955D01*
X-41879378Y42638288D01*
X-41879685Y42516752D01*
X-42079053Y42516752D01*
X-41946827Y42683962D01*
X-41777644Y42834270D01*
X-41599281Y42938864D01*
X-41544963Y42958549D01*
X-41281752Y43004428D01*
X-41043082Y42981709D01*
G37*
X-41043082Y42981709D02*
X-40840345Y42894050D01*
X-40684934Y42745110D01*
X-40637511Y42667121D01*
X-40572769Y42463737D01*
X-40554488Y42220665D01*
X-40580948Y41967838D01*
X-40650429Y41735190D01*
X-40696336Y41643238D01*
X-40857991Y41435838D01*
X-41052381Y41300609D01*
X-41269684Y41241024D01*
X-41500080Y41260554D01*
X-41637828Y41310427D01*
X-41837642Y41444186D01*
X-42001008Y41631165D01*
X-42117668Y41851199D01*
X-42177362Y42084123D01*
X-42169833Y42309773D01*
X-42162347Y42341466D01*
X-42083004Y42511755D01*
X-42079053Y42516752D01*
X-41879685Y42516752D01*
X-41871527Y42491654D01*
X-41796181Y42376410D01*
X-41691301Y42339645D01*
X-41563066Y42383075D01*
X-41538419Y42399234D01*
X-41459231Y42498084D01*
X-41454992Y42617347D01*
X-41514394Y42721583D01*
X-41618529Y42788018D01*
X-41727963Y42787337D01*
X-41821858Y42732955D01*
X-41879378Y42638288D01*
X-41879685Y42516752D01*
X-42079053Y42516752D01*
X-41946827Y42683962D01*
X-41777644Y42834270D01*
X-41599281Y42938864D01*
X-41544963Y42958549D01*
X-41281752Y43004428D01*
X-41043082Y42981709D01*
G36*
X-31735198Y43026097D02*
G01*
X-31601833Y42973141D01*
X-31388833Y42845854D01*
X-31249980Y42690151D01*
X-31182022Y42498194D01*
X-31181707Y42262145D01*
X-31222144Y42058166D01*
X-31313017Y41793532D01*
X-31432796Y41603463D01*
X-31590556Y41480213D01*
X-31795371Y41416035D01*
X-31990844Y41402000D01*
X-32235891Y41426929D01*
X-32428772Y41497250D01*
X-32616344Y41632521D01*
X-32739562Y41807009D01*
X-32800608Y42007573D01*
X-32801664Y42221069D01*
X-32744913Y42434357D01*
X-32640479Y42620164D01*
X-32504310Y42620164D01*
X-32492037Y42548030D01*
X-32455589Y42486378D01*
X-32368097Y42400091D01*
X-32244324Y42375666D01*
X-32132442Y42390319D01*
X-32055640Y42425644D01*
X-32054800Y42426466D01*
X-32008994Y42520547D01*
X-32005669Y42640893D01*
X-32041161Y42749463D01*
X-32090760Y42800120D01*
X-32232975Y42836944D01*
X-32366738Y42805019D01*
X-32464423Y42711082D01*
X-32465813Y42708628D01*
X-32504310Y42620164D01*
X-32640479Y42620164D01*
X-32632536Y42634295D01*
X-32466714Y42807740D01*
X-32249631Y42941551D01*
X-32184508Y42968436D01*
X-32003064Y43027950D01*
X-31863945Y43047084D01*
X-31735198Y43026097D01*
G37*
X-31735198Y43026097D02*
X-31601833Y42973141D01*
X-31388833Y42845854D01*
X-31249980Y42690151D01*
X-31182022Y42498194D01*
X-31181707Y42262145D01*
X-31222144Y42058166D01*
X-31313017Y41793532D01*
X-31432796Y41603463D01*
X-31590556Y41480213D01*
X-31795371Y41416035D01*
X-31990844Y41402000D01*
X-32235891Y41426929D01*
X-32428772Y41497250D01*
X-32616344Y41632521D01*
X-32739562Y41807009D01*
X-32800608Y42007573D01*
X-32801664Y42221069D01*
X-32744913Y42434357D01*
X-32640479Y42620164D01*
X-32504310Y42620164D01*
X-32492037Y42548030D01*
X-32455589Y42486378D01*
X-32368097Y42400091D01*
X-32244324Y42375666D01*
X-32132442Y42390319D01*
X-32055640Y42425644D01*
X-32054800Y42426466D01*
X-32008994Y42520547D01*
X-32005669Y42640893D01*
X-32041161Y42749463D01*
X-32090760Y42800120D01*
X-32232975Y42836944D01*
X-32366738Y42805019D01*
X-32464423Y42711082D01*
X-32465813Y42708628D01*
X-32504310Y42620164D01*
X-32640479Y42620164D01*
X-32632536Y42634295D01*
X-32466714Y42807740D01*
X-32249631Y42941551D01*
X-32184508Y42968436D01*
X-32003064Y43027950D01*
X-31863945Y43047084D01*
X-31735198Y43026097D01*
M02*
