G04 #@! TF.GenerationSoftware,KiCad,Pcbnew,5.1.5+dfsg1-2build2*
G04 #@! TF.CreationDate,2021-05-24T09:01:55+02:00*
G04 #@! TF.ProjectId,gopher-pin-v3-drawing,676f7068-6572-42d7-9069-6e2d76332d64,rev?*
G04 #@! TF.SameCoordinates,Original*
G04 #@! TF.FileFunction,Copper,L2,Bot*
G04 #@! TF.FilePolarity,Positive*
%FSLAX46Y46*%
G04 Gerber Fmt 4.6, Leading zero omitted, Abs format (unit mm)*
G04 Created by KiCad (PCBNEW 5.1.5+dfsg1-2build2) date 2021-05-24 09:01:55*
%MOMM*%
%LPD*%
G04 APERTURE LIST*
%ADD10C,0.010000*%
G04 APERTURE END LIST*
D10*
G36*
X-47332878Y36934398D02*
G01*
X-47328666Y36922942D01*
X-47317125Y36822283D01*
X-47285302Y36657326D01*
X-47237401Y36444824D01*
X-47177625Y36201528D01*
X-47110177Y35944191D01*
X-47039262Y35689563D01*
X-46969081Y35454398D01*
X-46928263Y35327166D01*
X-46586447Y34428997D01*
X-46173487Y33573551D01*
X-45693073Y32763949D01*
X-45148896Y32003311D01*
X-44544645Y31294758D01*
X-43884010Y30641409D01*
X-43170682Y30046386D01*
X-42408350Y29512809D01*
X-41600704Y29043797D01*
X-40751434Y28642472D01*
X-39864231Y28311954D01*
X-38942783Y28055363D01*
X-38144381Y27899142D01*
X-37655500Y27821511D01*
X-40579205Y27817255D01*
X-43502909Y27813000D01*
X-43796538Y28009565D01*
X-44534259Y28548713D01*
X-45248163Y29159934D01*
X-45926471Y29831494D01*
X-46557404Y30551660D01*
X-47129181Y31308698D01*
X-47175013Y31374860D01*
X-47285012Y31536363D01*
X-47374777Y31671167D01*
X-47434813Y31764806D01*
X-47455666Y31802537D01*
X-47416772Y31817463D01*
X-47311509Y31842602D01*
X-47157007Y31874155D01*
X-47011167Y31901158D01*
X-46566667Y31980128D01*
X-46566667Y33727373D01*
X-47508583Y33909065D01*
X-47785285Y33963134D01*
X-48038133Y34013849D01*
X-48253847Y34058444D01*
X-48419148Y34094149D01*
X-48520755Y34118196D01*
X-48542689Y34124667D01*
X-48585671Y34154557D01*
X-48630028Y34219549D01*
X-48681058Y34331250D01*
X-48744057Y34501266D01*
X-48824323Y34741202D01*
X-48824866Y34742872D01*
X-48917513Y35042234D01*
X-49004966Y35351632D01*
X-49083456Y35655191D01*
X-49149214Y35937034D01*
X-49198470Y36181287D01*
X-49227456Y36372074D01*
X-49233667Y36464680D01*
X-49231088Y36565224D01*
X-49224722Y36617548D01*
X-49223083Y36619597D01*
X-49180335Y36627626D01*
X-49066323Y36649436D01*
X-48892913Y36682749D01*
X-48671970Y36725281D01*
X-48415358Y36774753D01*
X-48270583Y36802692D01*
X-47959442Y36861874D01*
X-47722177Y36904640D01*
X-47549838Y36932133D01*
X-47433475Y36945495D01*
X-47364139Y36945869D01*
X-47332878Y36934398D01*
G37*
X-47332878Y36934398D02*
X-47328666Y36922942D01*
X-47317125Y36822283D01*
X-47285302Y36657326D01*
X-47237401Y36444824D01*
X-47177625Y36201528D01*
X-47110177Y35944191D01*
X-47039262Y35689563D01*
X-46969081Y35454398D01*
X-46928263Y35327166D01*
X-46586447Y34428997D01*
X-46173487Y33573551D01*
X-45693073Y32763949D01*
X-45148896Y32003311D01*
X-44544645Y31294758D01*
X-43884010Y30641409D01*
X-43170682Y30046386D01*
X-42408350Y29512809D01*
X-41600704Y29043797D01*
X-40751434Y28642472D01*
X-39864231Y28311954D01*
X-38942783Y28055363D01*
X-38144381Y27899142D01*
X-37655500Y27821511D01*
X-40579205Y27817255D01*
X-43502909Y27813000D01*
X-43796538Y28009565D01*
X-44534259Y28548713D01*
X-45248163Y29159934D01*
X-45926471Y29831494D01*
X-46557404Y30551660D01*
X-47129181Y31308698D01*
X-47175013Y31374860D01*
X-47285012Y31536363D01*
X-47374777Y31671167D01*
X-47434813Y31764806D01*
X-47455666Y31802537D01*
X-47416772Y31817463D01*
X-47311509Y31842602D01*
X-47157007Y31874155D01*
X-47011167Y31901158D01*
X-46566667Y31980128D01*
X-46566667Y33727373D01*
X-47508583Y33909065D01*
X-47785285Y33963134D01*
X-48038133Y34013849D01*
X-48253847Y34058444D01*
X-48419148Y34094149D01*
X-48520755Y34118196D01*
X-48542689Y34124667D01*
X-48585671Y34154557D01*
X-48630028Y34219549D01*
X-48681058Y34331250D01*
X-48744057Y34501266D01*
X-48824323Y34741202D01*
X-48824866Y34742872D01*
X-48917513Y35042234D01*
X-49004966Y35351632D01*
X-49083456Y35655191D01*
X-49149214Y35937034D01*
X-49198470Y36181287D01*
X-49227456Y36372074D01*
X-49233667Y36464680D01*
X-49231088Y36565224D01*
X-49224722Y36617548D01*
X-49223083Y36619597D01*
X-49180335Y36627626D01*
X-49066323Y36649436D01*
X-48892913Y36682749D01*
X-48671970Y36725281D01*
X-48415358Y36774753D01*
X-48270583Y36802692D01*
X-47959442Y36861874D01*
X-47722177Y36904640D01*
X-47549838Y36932133D01*
X-47433475Y36945495D01*
X-47364139Y36945869D01*
X-47332878Y36934398D01*
G36*
X-26797000Y32711624D02*
G01*
X-26796769Y32426797D01*
X-26795237Y32215341D01*
X-26791143Y32065961D01*
X-26783228Y31967360D01*
X-26770230Y31908244D01*
X-26750890Y31877317D01*
X-26723948Y31863282D01*
X-26701750Y31857866D01*
X-26621917Y31843477D01*
X-26479995Y31820681D01*
X-26297732Y31792891D01*
X-26140833Y31769840D01*
X-25947544Y31741047D01*
X-25782864Y31714907D01*
X-25666373Y31694627D01*
X-25620513Y31684609D01*
X-25612238Y31643492D01*
X-25658437Y31542263D01*
X-25759850Y31379361D01*
X-25778099Y31352132D01*
X-26228754Y30737224D01*
X-26747973Y30121873D01*
X-27321028Y29520850D01*
X-27933195Y28948923D01*
X-28569746Y28420859D01*
X-29067387Y28053333D01*
X-29411608Y27813000D01*
X-35369500Y27820508D01*
X-34861500Y27897750D01*
X-33907285Y28084508D01*
X-32983639Y28350056D01*
X-32090026Y28694627D01*
X-31225908Y29118452D01*
X-30390749Y29621762D01*
X-29675666Y30133438D01*
X-29261697Y30479107D01*
X-28831978Y30886108D01*
X-28401850Y31337020D01*
X-27986653Y31814423D01*
X-27601728Y32300896D01*
X-27262416Y32779020D01*
X-27052890Y33111827D01*
X-26797000Y33544634D01*
X-26797000Y32711624D01*
G37*
X-26797000Y32711624D02*
X-26796769Y32426797D01*
X-26795237Y32215341D01*
X-26791143Y32065961D01*
X-26783228Y31967360D01*
X-26770230Y31908244D01*
X-26750890Y31877317D01*
X-26723948Y31863282D01*
X-26701750Y31857866D01*
X-26621917Y31843477D01*
X-26479995Y31820681D01*
X-26297732Y31792891D01*
X-26140833Y31769840D01*
X-25947544Y31741047D01*
X-25782864Y31714907D01*
X-25666373Y31694627D01*
X-25620513Y31684609D01*
X-25612238Y31643492D01*
X-25658437Y31542263D01*
X-25759850Y31379361D01*
X-25778099Y31352132D01*
X-26228754Y30737224D01*
X-26747973Y30121873D01*
X-27321028Y29520850D01*
X-27933195Y28948923D01*
X-28569746Y28420859D01*
X-29067387Y28053333D01*
X-29411608Y27813000D01*
X-35369500Y27820508D01*
X-34861500Y27897750D01*
X-33907285Y28084508D01*
X-32983639Y28350056D01*
X-32090026Y28694627D01*
X-31225908Y29118452D01*
X-30390749Y29621762D01*
X-29675666Y30133438D01*
X-29261697Y30479107D01*
X-28831978Y30886108D01*
X-28401850Y31337020D01*
X-27986653Y31814423D01*
X-27601728Y32300896D01*
X-27262416Y32779020D01*
X-27052890Y33111827D01*
X-26797000Y33544634D01*
X-26797000Y32711624D01*
G36*
X-24181782Y29796966D02*
G01*
X-24178916Y29572975D01*
X-24178781Y29380506D01*
X-24181204Y29234704D01*
X-24186014Y29150714D01*
X-24189311Y29136578D01*
X-24234960Y29120133D01*
X-24348249Y29087405D01*
X-24514616Y29042377D01*
X-24719496Y28989035D01*
X-24844175Y28957382D01*
X-25479793Y28797432D01*
X-25180836Y29141299D01*
X-25035203Y29315353D01*
X-24863350Y29530808D01*
X-24687343Y29759521D01*
X-24537690Y29961637D01*
X-24193500Y30438108D01*
X-24181782Y29796966D01*
G37*
X-24181782Y29796966D02*
X-24178916Y29572975D01*
X-24178781Y29380506D01*
X-24181204Y29234704D01*
X-24186014Y29150714D01*
X-24189311Y29136578D01*
X-24234960Y29120133D01*
X-24348249Y29087405D01*
X-24514616Y29042377D01*
X-24719496Y28989035D01*
X-24844175Y28957382D01*
X-25479793Y28797432D01*
X-25180836Y29141299D01*
X-25035203Y29315353D01*
X-24863350Y29530808D01*
X-24687343Y29759521D01*
X-24537690Y29961637D01*
X-24193500Y30438108D01*
X-24181782Y29796966D01*
G36*
X-48863250Y30106574D02*
G01*
X-48702499Y29884384D01*
X-48519098Y29642689D01*
X-48337583Y29413274D01*
X-48205577Y29254540D01*
X-48083253Y29107858D01*
X-47990644Y28988028D01*
X-47936452Y28906996D01*
X-47929374Y28876705D01*
X-47930410Y28876736D01*
X-47989351Y28887198D01*
X-48114896Y28912348D01*
X-48290921Y28948866D01*
X-48501301Y28993432D01*
X-48598666Y29014319D01*
X-49212500Y29146500D01*
X-49210576Y29326416D01*
X-49209131Y29439499D01*
X-49206632Y29613287D01*
X-49203433Y29823830D01*
X-49199992Y30040867D01*
X-49191333Y30575400D01*
X-48863250Y30106574D01*
G37*
X-48863250Y30106574D02*
X-48702499Y29884384D01*
X-48519098Y29642689D01*
X-48337583Y29413274D01*
X-48205577Y29254540D01*
X-48083253Y29107858D01*
X-47990644Y28988028D01*
X-47936452Y28906996D01*
X-47929374Y28876705D01*
X-47930410Y28876736D01*
X-47989351Y28887198D01*
X-48114896Y28912348D01*
X-48290921Y28948866D01*
X-48501301Y28993432D01*
X-48598666Y29014319D01*
X-49212500Y29146500D01*
X-49210576Y29326416D01*
X-49209131Y29439499D01*
X-49206632Y29613287D01*
X-49203433Y29823830D01*
X-49199992Y30040867D01*
X-49191333Y30575400D01*
X-48863250Y30106574D01*
G36*
X-35956654Y47677444D02*
G01*
X-35109541Y47586491D01*
X-34273863Y47414532D01*
X-33454837Y47161925D01*
X-32657679Y46829030D01*
X-32501686Y46753026D01*
X-31874270Y46412172D01*
X-31301915Y46040123D01*
X-30761695Y45620366D01*
X-30230683Y45136386D01*
X-30158141Y45064918D01*
X-29565988Y44418465D01*
X-29045936Y43728815D01*
X-28599390Y42999363D01*
X-28227756Y42233503D01*
X-27932441Y41434631D01*
X-27714851Y40606139D01*
X-27576390Y39751424D01*
X-27518467Y38873878D01*
X-27516666Y38687576D01*
X-27557508Y37825696D01*
X-27677770Y36985428D01*
X-27874065Y36170762D01*
X-28143000Y35385686D01*
X-28481185Y34634191D01*
X-28885231Y33920264D01*
X-29351746Y33247895D01*
X-29877340Y32621075D01*
X-30458622Y32043791D01*
X-31092202Y31520033D01*
X-31774690Y31053791D01*
X-32502695Y30649053D01*
X-33272827Y30309809D01*
X-34081694Y30040048D01*
X-34925908Y29843760D01*
X-35052000Y29821473D01*
X-35214134Y29800882D01*
X-35439644Y29781775D01*
X-35710753Y29764756D01*
X-36009687Y29750425D01*
X-36318668Y29739385D01*
X-36619922Y29732239D01*
X-36895673Y29729589D01*
X-37128145Y29732036D01*
X-37299563Y29740184D01*
X-37338000Y29744019D01*
X-38226808Y29885570D01*
X-39062634Y30090252D01*
X-39851723Y30360693D01*
X-40600322Y30699523D01*
X-41314678Y31109371D01*
X-42001035Y31592866D01*
X-42298980Y31832290D01*
X-42908807Y32395392D01*
X-43466393Y33020232D01*
X-43966161Y33697902D01*
X-44402532Y34419493D01*
X-44769928Y35176096D01*
X-45062771Y35958803D01*
X-45212549Y36485564D01*
X-45315152Y36932773D01*
X-45389309Y37345387D01*
X-45438414Y37752214D01*
X-45465863Y38182063D01*
X-45474793Y38650333D01*
X-43411518Y38650333D01*
X-43411012Y38324224D01*
X-43407736Y38066251D01*
X-43400569Y37859902D01*
X-43388387Y37688661D01*
X-43370069Y37536016D01*
X-43344493Y37385453D01*
X-43316120Y37246362D01*
X-43111772Y36485225D01*
X-42834802Y35764311D01*
X-42488018Y35087207D01*
X-42074228Y34457499D01*
X-41596239Y33878774D01*
X-41056859Y33354620D01*
X-40458895Y32888624D01*
X-39805156Y32484373D01*
X-39444475Y32299933D01*
X-38765037Y32020057D01*
X-38056395Y31812362D01*
X-37330912Y31678903D01*
X-36600954Y31621738D01*
X-35878886Y31642924D01*
X-35643556Y31667571D01*
X-35011980Y31770311D01*
X-34425498Y31919449D01*
X-33853229Y32124017D01*
X-33413309Y32319958D01*
X-32746508Y32685927D01*
X-32129485Y33117687D01*
X-31566175Y33609897D01*
X-31060511Y34157214D01*
X-30616426Y34754297D01*
X-30237853Y35395802D01*
X-29928727Y36076388D01*
X-29692981Y36790713D01*
X-29534547Y37533434D01*
X-29524146Y37601959D01*
X-29480939Y38019519D01*
X-29464025Y38481606D01*
X-29472471Y38961035D01*
X-29505344Y39430621D01*
X-29561713Y39863181D01*
X-29610175Y40110153D01*
X-29823244Y40858229D01*
X-30107853Y41567130D01*
X-30460093Y42232766D01*
X-30876053Y42851047D01*
X-31351824Y43417884D01*
X-31883494Y43929187D01*
X-32467154Y44380866D01*
X-33098894Y44768830D01*
X-33774803Y45088990D01*
X-34490970Y45337257D01*
X-34649169Y45380677D01*
X-35398685Y45539506D01*
X-36131322Y45617199D01*
X-36855265Y45613494D01*
X-37578697Y45528129D01*
X-38309803Y45360840D01*
X-38664777Y45251726D01*
X-39378291Y44971532D01*
X-40046895Y44621352D01*
X-40667139Y44205020D01*
X-41235571Y43726369D01*
X-41748742Y43189235D01*
X-42203199Y42597452D01*
X-42595494Y41954854D01*
X-42922174Y41265276D01*
X-43179789Y40532553D01*
X-43291192Y40110833D01*
X-43330334Y39938829D01*
X-43359857Y39790848D01*
X-43381130Y39650262D01*
X-43395523Y39500445D01*
X-43404407Y39324770D01*
X-43409150Y39106608D01*
X-43411124Y38829334D01*
X-43411518Y38650333D01*
X-45474793Y38650333D01*
X-45475049Y38663744D01*
X-45475095Y38713833D01*
X-45457963Y39357888D01*
X-45404176Y39950785D01*
X-45309272Y40519672D01*
X-45168786Y41091700D01*
X-44991361Y41656000D01*
X-44677667Y42441740D01*
X-44290301Y43190969D01*
X-43834079Y43898928D01*
X-43313815Y44560864D01*
X-42734323Y45172018D01*
X-42100417Y45727635D01*
X-41416913Y46222958D01*
X-40688625Y46653232D01*
X-39920367Y47013700D01*
X-39355139Y47224029D01*
X-38514445Y47460684D01*
X-37664323Y47614899D01*
X-36809987Y47687033D01*
X-35956654Y47677444D01*
G37*
X-35956654Y47677444D02*
X-35109541Y47586491D01*
X-34273863Y47414532D01*
X-33454837Y47161925D01*
X-32657679Y46829030D01*
X-32501686Y46753026D01*
X-31874270Y46412172D01*
X-31301915Y46040123D01*
X-30761695Y45620366D01*
X-30230683Y45136386D01*
X-30158141Y45064918D01*
X-29565988Y44418465D01*
X-29045936Y43728815D01*
X-28599390Y42999363D01*
X-28227756Y42233503D01*
X-27932441Y41434631D01*
X-27714851Y40606139D01*
X-27576390Y39751424D01*
X-27518467Y38873878D01*
X-27516666Y38687576D01*
X-27557508Y37825696D01*
X-27677770Y36985428D01*
X-27874065Y36170762D01*
X-28143000Y35385686D01*
X-28481185Y34634191D01*
X-28885231Y33920264D01*
X-29351746Y33247895D01*
X-29877340Y32621075D01*
X-30458622Y32043791D01*
X-31092202Y31520033D01*
X-31774690Y31053791D01*
X-32502695Y30649053D01*
X-33272827Y30309809D01*
X-34081694Y30040048D01*
X-34925908Y29843760D01*
X-35052000Y29821473D01*
X-35214134Y29800882D01*
X-35439644Y29781775D01*
X-35710753Y29764756D01*
X-36009687Y29750425D01*
X-36318668Y29739385D01*
X-36619922Y29732239D01*
X-36895673Y29729589D01*
X-37128145Y29732036D01*
X-37299563Y29740184D01*
X-37338000Y29744019D01*
X-38226808Y29885570D01*
X-39062634Y30090252D01*
X-39851723Y30360693D01*
X-40600322Y30699523D01*
X-41314678Y31109371D01*
X-42001035Y31592866D01*
X-42298980Y31832290D01*
X-42908807Y32395392D01*
X-43466393Y33020232D01*
X-43966161Y33697902D01*
X-44402532Y34419493D01*
X-44769928Y35176096D01*
X-45062771Y35958803D01*
X-45212549Y36485564D01*
X-45315152Y36932773D01*
X-45389309Y37345387D01*
X-45438414Y37752214D01*
X-45465863Y38182063D01*
X-45474793Y38650333D01*
X-43411518Y38650333D01*
X-43411012Y38324224D01*
X-43407736Y38066251D01*
X-43400569Y37859902D01*
X-43388387Y37688661D01*
X-43370069Y37536016D01*
X-43344493Y37385453D01*
X-43316120Y37246362D01*
X-43111772Y36485225D01*
X-42834802Y35764311D01*
X-42488018Y35087207D01*
X-42074228Y34457499D01*
X-41596239Y33878774D01*
X-41056859Y33354620D01*
X-40458895Y32888624D01*
X-39805156Y32484373D01*
X-39444475Y32299933D01*
X-38765037Y32020057D01*
X-38056395Y31812362D01*
X-37330912Y31678903D01*
X-36600954Y31621738D01*
X-35878886Y31642924D01*
X-35643556Y31667571D01*
X-35011980Y31770311D01*
X-34425498Y31919449D01*
X-33853229Y32124017D01*
X-33413309Y32319958D01*
X-32746508Y32685927D01*
X-32129485Y33117687D01*
X-31566175Y33609897D01*
X-31060511Y34157214D01*
X-30616426Y34754297D01*
X-30237853Y35395802D01*
X-29928727Y36076388D01*
X-29692981Y36790713D01*
X-29534547Y37533434D01*
X-29524146Y37601959D01*
X-29480939Y38019519D01*
X-29464025Y38481606D01*
X-29472471Y38961035D01*
X-29505344Y39430621D01*
X-29561713Y39863181D01*
X-29610175Y40110153D01*
X-29823244Y40858229D01*
X-30107853Y41567130D01*
X-30460093Y42232766D01*
X-30876053Y42851047D01*
X-31351824Y43417884D01*
X-31883494Y43929187D01*
X-32467154Y44380866D01*
X-33098894Y44768830D01*
X-33774803Y45088990D01*
X-34490970Y45337257D01*
X-34649169Y45380677D01*
X-35398685Y45539506D01*
X-36131322Y45617199D01*
X-36855265Y45613494D01*
X-37578697Y45528129D01*
X-38309803Y45360840D01*
X-38664777Y45251726D01*
X-39378291Y44971532D01*
X-40046895Y44621352D01*
X-40667139Y44205020D01*
X-41235571Y43726369D01*
X-41748742Y43189235D01*
X-42203199Y42597452D01*
X-42595494Y41954854D01*
X-42922174Y41265276D01*
X-43179789Y40532553D01*
X-43291192Y40110833D01*
X-43330334Y39938829D01*
X-43359857Y39790848D01*
X-43381130Y39650262D01*
X-43395523Y39500445D01*
X-43404407Y39324770D01*
X-43409150Y39106608D01*
X-43411124Y38829334D01*
X-43411518Y38650333D01*
X-45474793Y38650333D01*
X-45475049Y38663744D01*
X-45475095Y38713833D01*
X-45457963Y39357888D01*
X-45404176Y39950785D01*
X-45309272Y40519672D01*
X-45168786Y41091700D01*
X-44991361Y41656000D01*
X-44677667Y42441740D01*
X-44290301Y43190969D01*
X-43834079Y43898928D01*
X-43313815Y44560864D01*
X-42734323Y45172018D01*
X-42100417Y45727635D01*
X-41416913Y46222958D01*
X-40688625Y46653232D01*
X-39920367Y47013700D01*
X-39355139Y47224029D01*
X-38514445Y47460684D01*
X-37664323Y47614899D01*
X-36809987Y47687033D01*
X-35956654Y47677444D01*
G36*
X-25584580Y36824946D02*
G01*
X-25471297Y36811726D01*
X-25306427Y36788213D01*
X-25105809Y36756944D01*
X-24885280Y36720454D01*
X-24660676Y36681280D01*
X-24447836Y36641958D01*
X-24288750Y36610468D01*
X-24087666Y36568984D01*
X-24087172Y35694075D01*
X-24087507Y35397163D01*
X-24089824Y35169856D01*
X-24095519Y34997095D01*
X-24105988Y34863820D01*
X-24122628Y34754973D01*
X-24146835Y34655493D01*
X-24180006Y34550322D01*
X-24198127Y34497419D01*
X-24309576Y34175672D01*
X-25415705Y33997242D01*
X-25714813Y33948651D01*
X-25988871Y33903481D01*
X-26226005Y33863740D01*
X-26414341Y33831437D01*
X-26542005Y33808581D01*
X-26595916Y33797553D01*
X-26657798Y33788191D01*
X-26670000Y33794873D01*
X-26652820Y33838133D01*
X-26606108Y33941871D01*
X-26537101Y34090300D01*
X-26457401Y34258508D01*
X-26324574Y34560721D01*
X-26185017Y34920250D01*
X-26047472Y35311172D01*
X-25920682Y35707564D01*
X-25813392Y36083501D01*
X-25740472Y36384128D01*
X-25700717Y36562430D01*
X-25665752Y36707471D01*
X-25640182Y36800783D01*
X-25630440Y36825337D01*
X-25584580Y36824946D01*
G37*
X-25584580Y36824946D02*
X-25471297Y36811726D01*
X-25306427Y36788213D01*
X-25105809Y36756944D01*
X-24885280Y36720454D01*
X-24660676Y36681280D01*
X-24447836Y36641958D01*
X-24288750Y36610468D01*
X-24087666Y36568984D01*
X-24087172Y35694075D01*
X-24087507Y35397163D01*
X-24089824Y35169856D01*
X-24095519Y34997095D01*
X-24105988Y34863820D01*
X-24122628Y34754973D01*
X-24146835Y34655493D01*
X-24180006Y34550322D01*
X-24198127Y34497419D01*
X-24309576Y34175672D01*
X-25415705Y33997242D01*
X-25714813Y33948651D01*
X-25988871Y33903481D01*
X-26226005Y33863740D01*
X-26414341Y33831437D01*
X-26542005Y33808581D01*
X-26595916Y33797553D01*
X-26657798Y33788191D01*
X-26670000Y33794873D01*
X-26652820Y33838133D01*
X-26606108Y33941871D01*
X-26537101Y34090300D01*
X-26457401Y34258508D01*
X-26324574Y34560721D01*
X-26185017Y34920250D01*
X-26047472Y35311172D01*
X-25920682Y35707564D01*
X-25813392Y36083501D01*
X-25740472Y36384128D01*
X-25700717Y36562430D01*
X-25665752Y36707471D01*
X-25640182Y36800783D01*
X-25630440Y36825337D01*
X-25584580Y36824946D01*
G36*
X-46972929Y42109624D02*
G01*
X-47073483Y41782134D01*
X-47169766Y41409568D01*
X-47258001Y41012128D01*
X-47334411Y40610010D01*
X-47395220Y40223415D01*
X-47436651Y39872541D01*
X-47454928Y39577586D01*
X-47455472Y39528750D01*
X-47459854Y39386395D01*
X-47471172Y39285410D01*
X-47487000Y39247173D01*
X-47487416Y39247204D01*
X-47537664Y39256718D01*
X-47656237Y39280329D01*
X-47828529Y39315093D01*
X-48039931Y39358069D01*
X-48196500Y39390057D01*
X-48438401Y39439324D01*
X-48662997Y39484610D01*
X-48851919Y39522244D01*
X-48986797Y39548556D01*
X-49032583Y39557105D01*
X-49191333Y39585503D01*
X-49191876Y40462001D01*
X-49190292Y40797804D01*
X-49184476Y41063750D01*
X-49173530Y41274585D01*
X-49156556Y41445053D01*
X-49132657Y41589898D01*
X-49119521Y41650143D01*
X-49079081Y41801703D01*
X-49038873Y41917226D01*
X-49006628Y41975066D01*
X-49002562Y41977581D01*
X-48950410Y41989757D01*
X-48826888Y42015699D01*
X-48643738Y42053031D01*
X-48412705Y42099377D01*
X-48145531Y42152360D01*
X-47916071Y42197457D01*
X-46873643Y42401537D01*
X-46972929Y42109624D01*
G37*
X-46972929Y42109624D02*
X-47073483Y41782134D01*
X-47169766Y41409568D01*
X-47258001Y41012128D01*
X-47334411Y40610010D01*
X-47395220Y40223415D01*
X-47436651Y39872541D01*
X-47454928Y39577586D01*
X-47455472Y39528750D01*
X-47459854Y39386395D01*
X-47471172Y39285410D01*
X-47487000Y39247173D01*
X-47487416Y39247204D01*
X-47537664Y39256718D01*
X-47656237Y39280329D01*
X-47828529Y39315093D01*
X-48039931Y39358069D01*
X-48196500Y39390057D01*
X-48438401Y39439324D01*
X-48662997Y39484610D01*
X-48851919Y39522244D01*
X-48986797Y39548556D01*
X-49032583Y39557105D01*
X-49191333Y39585503D01*
X-49191876Y40462001D01*
X-49190292Y40797804D01*
X-49184476Y41063750D01*
X-49173530Y41274585D01*
X-49156556Y41445053D01*
X-49132657Y41589898D01*
X-49119521Y41650143D01*
X-49079081Y41801703D01*
X-49038873Y41917226D01*
X-49006628Y41975066D01*
X-49002562Y41977581D01*
X-48950410Y41989757D01*
X-48826888Y42015699D01*
X-48643738Y42053031D01*
X-48412705Y42099377D01*
X-48145531Y42152360D01*
X-47916071Y42197457D01*
X-46873643Y42401537D01*
X-46972929Y42109624D01*
G36*
X-25978142Y42272190D02*
G01*
X-25865940Y42253778D01*
X-25700199Y42223315D01*
X-25495514Y42183787D01*
X-25266477Y42138181D01*
X-25027684Y42089483D01*
X-24793728Y42040681D01*
X-24579202Y41994759D01*
X-24398700Y41954706D01*
X-24266816Y41923506D01*
X-24198144Y41904148D01*
X-24191980Y41901026D01*
X-24188402Y41857220D01*
X-24184205Y41739677D01*
X-24179631Y41559325D01*
X-24174925Y41327088D01*
X-24170329Y41053894D01*
X-24166086Y40750668D01*
X-24165677Y40717975D01*
X-24151166Y39547117D01*
X-24722666Y39436180D01*
X-24939661Y39393918D01*
X-25132791Y39356043D01*
X-25283719Y39326169D01*
X-25374111Y39307912D01*
X-25384483Y39305720D01*
X-25430404Y39302011D01*
X-25459983Y39325988D01*
X-25479491Y39393868D01*
X-25495198Y39521870D01*
X-25503618Y39613848D01*
X-25562690Y40146427D01*
X-25644923Y40682301D01*
X-25745872Y41198148D01*
X-25861096Y41670645D01*
X-25955607Y41986787D01*
X-25997262Y42125204D01*
X-26021144Y42229177D01*
X-26022212Y42275565D01*
X-25978142Y42272190D01*
G37*
X-25978142Y42272190D02*
X-25865940Y42253778D01*
X-25700199Y42223315D01*
X-25495514Y42183787D01*
X-25266477Y42138181D01*
X-25027684Y42089483D01*
X-24793728Y42040681D01*
X-24579202Y41994759D01*
X-24398700Y41954706D01*
X-24266816Y41923506D01*
X-24198144Y41904148D01*
X-24191980Y41901026D01*
X-24188402Y41857220D01*
X-24184205Y41739677D01*
X-24179631Y41559325D01*
X-24174925Y41327088D01*
X-24170329Y41053894D01*
X-24166086Y40750668D01*
X-24165677Y40717975D01*
X-24151166Y39547117D01*
X-24722666Y39436180D01*
X-24939661Y39393918D01*
X-25132791Y39356043D01*
X-25283719Y39326169D01*
X-25374111Y39307912D01*
X-25384483Y39305720D01*
X-25430404Y39302011D01*
X-25459983Y39325988D01*
X-25479491Y39393868D01*
X-25495198Y39521870D01*
X-25503618Y39613848D01*
X-25562690Y40146427D01*
X-25644923Y40682301D01*
X-25745872Y41198148D01*
X-25861096Y41670645D01*
X-25955607Y41986787D01*
X-25997262Y42125204D01*
X-26021144Y42229177D01*
X-26022212Y42275565D01*
X-25978142Y42272190D01*
G36*
X-42996104Y49062969D02*
G01*
X-42576113Y49059057D01*
X-42179341Y49052866D01*
X-41813238Y49044668D01*
X-41485249Y49034730D01*
X-41202822Y49023325D01*
X-40973405Y49010721D01*
X-40804445Y48997188D01*
X-40703389Y48982997D01*
X-40677686Y48968417D01*
X-40683932Y48964732D01*
X-41472124Y48596098D01*
X-42246819Y48152559D01*
X-42994738Y47643875D01*
X-43702596Y47079808D01*
X-44357113Y46470119D01*
X-44926167Y45847107D01*
X-45213590Y45482324D01*
X-45511538Y45064901D01*
X-45802209Y44621986D01*
X-46067800Y44180725D01*
X-46290509Y43768267D01*
X-46294172Y43760962D01*
X-46564906Y43220091D01*
X-46576370Y44076520D01*
X-46587833Y44932950D01*
X-47074666Y45029420D01*
X-47276351Y45069697D01*
X-47454780Y45105899D01*
X-47589264Y45133794D01*
X-47655294Y45148219D01*
X-47692792Y45161478D01*
X-47707653Y45187224D01*
X-47695228Y45238170D01*
X-47650867Y45327029D01*
X-47569921Y45466514D01*
X-47490694Y45598281D01*
X-47061152Y46251172D01*
X-46565618Y46902770D01*
X-46020870Y47533955D01*
X-45443687Y48125610D01*
X-44850844Y48658616D01*
X-44688576Y48791347D01*
X-44347385Y49064333D01*
X-43431867Y49064333D01*
X-42996104Y49062969D01*
G37*
X-42996104Y49062969D02*
X-42576113Y49059057D01*
X-42179341Y49052866D01*
X-41813238Y49044668D01*
X-41485249Y49034730D01*
X-41202822Y49023325D01*
X-40973405Y49010721D01*
X-40804445Y48997188D01*
X-40703389Y48982997D01*
X-40677686Y48968417D01*
X-40683932Y48964732D01*
X-41472124Y48596098D01*
X-42246819Y48152559D01*
X-42994738Y47643875D01*
X-43702596Y47079808D01*
X-44357113Y46470119D01*
X-44926167Y45847107D01*
X-45213590Y45482324D01*
X-45511538Y45064901D01*
X-45802209Y44621986D01*
X-46067800Y44180725D01*
X-46290509Y43768267D01*
X-46294172Y43760962D01*
X-46564906Y43220091D01*
X-46576370Y44076520D01*
X-46587833Y44932950D01*
X-47074666Y45029420D01*
X-47276351Y45069697D01*
X-47454780Y45105899D01*
X-47589264Y45133794D01*
X-47655294Y45148219D01*
X-47692792Y45161478D01*
X-47707653Y45187224D01*
X-47695228Y45238170D01*
X-47650867Y45327029D01*
X-47569921Y45466514D01*
X-47490694Y45598281D01*
X-47061152Y46251172D01*
X-46565618Y46902770D01*
X-46020870Y47533955D01*
X-45443687Y48125610D01*
X-44850844Y48658616D01*
X-44688576Y48791347D01*
X-44347385Y49064333D01*
X-43431867Y49064333D01*
X-42996104Y49062969D01*
G36*
X-28235204Y48783551D02*
G01*
X-28019722Y48603665D01*
X-27765547Y48373311D01*
X-27487607Y48107542D01*
X-27200829Y47821414D01*
X-26920141Y47529981D01*
X-26660469Y47248297D01*
X-26436743Y46991417D01*
X-26336216Y46868422D01*
X-26162385Y46643272D01*
X-25986019Y46404087D01*
X-25813759Y46161029D01*
X-25652246Y45924258D01*
X-25508121Y45703935D01*
X-25388023Y45510223D01*
X-25298594Y45353281D01*
X-25246474Y45243272D01*
X-25238304Y45190356D01*
X-25239021Y45189534D01*
X-25284459Y45175517D01*
X-25399564Y45147781D01*
X-25571003Y45109318D01*
X-25785443Y45063120D01*
X-26025937Y45012924D01*
X-26794241Y44854926D01*
X-26807859Y44430213D01*
X-26814312Y44258376D01*
X-26820997Y44129315D01*
X-26826999Y44058390D01*
X-26830405Y44052055D01*
X-26861386Y44125837D01*
X-26932589Y44255027D01*
X-27035291Y44425950D01*
X-27160769Y44624930D01*
X-27300299Y44838289D01*
X-27445159Y45052351D01*
X-27586626Y45253440D01*
X-27664749Y45360166D01*
X-28199062Y46026811D01*
X-28764193Y46630714D01*
X-29374671Y47185477D01*
X-30045026Y47704702D01*
X-30507489Y48021562D01*
X-30736600Y48164921D01*
X-31003425Y48321023D01*
X-31288880Y48479686D01*
X-31573879Y48630724D01*
X-31839336Y48763954D01*
X-32066167Y48869191D01*
X-32194500Y48921779D01*
X-32406166Y49000833D01*
X-31898166Y49026843D01*
X-31727449Y49033503D01*
X-31487319Y49039906D01*
X-31193033Y49045799D01*
X-30859847Y49050926D01*
X-30503014Y49055034D01*
X-30137791Y49057870D01*
X-29992037Y49058593D01*
X-28593907Y49064333D01*
X-28235204Y48783551D01*
G37*
X-28235204Y48783551D02*
X-28019722Y48603665D01*
X-27765547Y48373311D01*
X-27487607Y48107542D01*
X-27200829Y47821414D01*
X-26920141Y47529981D01*
X-26660469Y47248297D01*
X-26436743Y46991417D01*
X-26336216Y46868422D01*
X-26162385Y46643272D01*
X-25986019Y46404087D01*
X-25813759Y46161029D01*
X-25652246Y45924258D01*
X-25508121Y45703935D01*
X-25388023Y45510223D01*
X-25298594Y45353281D01*
X-25246474Y45243272D01*
X-25238304Y45190356D01*
X-25239021Y45189534D01*
X-25284459Y45175517D01*
X-25399564Y45147781D01*
X-25571003Y45109318D01*
X-25785443Y45063120D01*
X-26025937Y45012924D01*
X-26794241Y44854926D01*
X-26807859Y44430213D01*
X-26814312Y44258376D01*
X-26820997Y44129315D01*
X-26826999Y44058390D01*
X-26830405Y44052055D01*
X-26861386Y44125837D01*
X-26932589Y44255027D01*
X-27035291Y44425950D01*
X-27160769Y44624930D01*
X-27300299Y44838289D01*
X-27445159Y45052351D01*
X-27586626Y45253440D01*
X-27664749Y45360166D01*
X-28199062Y46026811D01*
X-28764193Y46630714D01*
X-29374671Y47185477D01*
X-30045026Y47704702D01*
X-30507489Y48021562D01*
X-30736600Y48164921D01*
X-31003425Y48321023D01*
X-31288880Y48479686D01*
X-31573879Y48630724D01*
X-31839336Y48763954D01*
X-32066167Y48869191D01*
X-32194500Y48921779D01*
X-32406166Y49000833D01*
X-31898166Y49026843D01*
X-31727449Y49033503D01*
X-31487319Y49039906D01*
X-31193033Y49045799D01*
X-30859847Y49050926D01*
X-30503014Y49055034D01*
X-30137791Y49057870D01*
X-29992037Y49058593D01*
X-28593907Y49064333D01*
X-28235204Y48783551D01*
G36*
X-48555357Y47940738D02*
G01*
X-48585322Y47884981D01*
X-48642970Y47815500D01*
X-48699595Y47744483D01*
X-48789758Y47624583D01*
X-48898277Y47476158D01*
X-48955921Y47395864D01*
X-49194830Y47060894D01*
X-49182498Y47436816D01*
X-49170166Y47812739D01*
X-48843242Y47903452D01*
X-48676827Y47946684D01*
X-48583362Y47960209D01*
X-48555357Y47940738D01*
G37*
X-48555357Y47940738D02*
X-48585322Y47884981D01*
X-48642970Y47815500D01*
X-48699595Y47744483D01*
X-48789758Y47624583D01*
X-48898277Y47476158D01*
X-48955921Y47395864D01*
X-49194830Y47060894D01*
X-49182498Y47436816D01*
X-49170166Y47812739D01*
X-48843242Y47903452D01*
X-48676827Y47946684D01*
X-48583362Y47960209D01*
X-48555357Y47940738D01*
G36*
X-24445321Y47843425D02*
G01*
X-24172333Y47778108D01*
X-24172333Y47468721D01*
X-24173661Y47319194D01*
X-24177168Y47209534D01*
X-24182136Y47160658D01*
X-24182916Y47159857D01*
X-24210518Y47191755D01*
X-24266039Y47270423D01*
X-24284099Y47297441D01*
X-24357500Y47405061D01*
X-24457421Y47547320D01*
X-24546504Y47671621D01*
X-24718310Y47908742D01*
X-24445321Y47843425D01*
G37*
X-24445321Y47843425D02*
X-24172333Y47778108D01*
X-24172333Y47468721D01*
X-24173661Y47319194D01*
X-24177168Y47209534D01*
X-24182136Y47160658D01*
X-24182916Y47159857D01*
X-24210518Y47191755D01*
X-24266039Y47270423D01*
X-24284099Y47297441D01*
X-24357500Y47405061D01*
X-24457421Y47547320D01*
X-24546504Y47671621D01*
X-24718310Y47908742D01*
X-24445321Y47843425D01*
G36*
X-35540292Y43593267D02*
G01*
X-34931189Y43460415D01*
X-34346405Y43251910D01*
X-34184166Y43177907D01*
X-33638284Y42871595D01*
X-33134154Y42499745D01*
X-32679982Y42070864D01*
X-32283973Y41593461D01*
X-31954335Y41076044D01*
X-31750474Y40654692D01*
X-31535457Y40039500D01*
X-31401454Y39418407D01*
X-31346119Y38797661D01*
X-31367105Y38183511D01*
X-31462064Y37582205D01*
X-31628650Y36999990D01*
X-31864515Y36443114D01*
X-32167314Y35917826D01*
X-32534698Y35430373D01*
X-32964321Y34987003D01*
X-33453837Y34593964D01*
X-34000897Y34257505D01*
X-34189317Y34162042D01*
X-34703062Y33954734D01*
X-35259868Y33802176D01*
X-35834190Y33709503D01*
X-36400480Y33681851D01*
X-36554833Y33686494D01*
X-37208039Y33759163D01*
X-37832826Y33911267D01*
X-38426269Y34141505D01*
X-38985439Y34448574D01*
X-39507408Y34831171D01*
X-39865206Y35159350D01*
X-40296988Y35650865D01*
X-40656733Y36186377D01*
X-40945185Y36767186D01*
X-41163090Y37394594D01*
X-41179042Y37452555D01*
X-41218930Y37607044D01*
X-41248068Y37742705D01*
X-41268121Y37877692D01*
X-41280753Y38030155D01*
X-41287629Y38218246D01*
X-41290412Y38460118D01*
X-41290818Y38671500D01*
X-41289910Y38961898D01*
X-41286078Y39185792D01*
X-41277656Y39361331D01*
X-41262980Y39506667D01*
X-41240385Y39639954D01*
X-41208208Y39779341D01*
X-41179042Y39890444D01*
X-40971865Y40504491D01*
X-40693397Y41083163D01*
X-40349157Y41619568D01*
X-39944666Y42106816D01*
X-39485444Y42538013D01*
X-38977010Y42906269D01*
X-38586833Y43126923D01*
X-38012032Y43370538D01*
X-37409584Y43539099D01*
X-36789883Y43632488D01*
X-36163321Y43650584D01*
X-35540292Y43593267D01*
G37*
X-35540292Y43593267D02*
X-34931189Y43460415D01*
X-34346405Y43251910D01*
X-34184166Y43177907D01*
X-33638284Y42871595D01*
X-33134154Y42499745D01*
X-32679982Y42070864D01*
X-32283973Y41593461D01*
X-31954335Y41076044D01*
X-31750474Y40654692D01*
X-31535457Y40039500D01*
X-31401454Y39418407D01*
X-31346119Y38797661D01*
X-31367105Y38183511D01*
X-31462064Y37582205D01*
X-31628650Y36999990D01*
X-31864515Y36443114D01*
X-32167314Y35917826D01*
X-32534698Y35430373D01*
X-32964321Y34987003D01*
X-33453837Y34593964D01*
X-34000897Y34257505D01*
X-34189317Y34162042D01*
X-34703062Y33954734D01*
X-35259868Y33802176D01*
X-35834190Y33709503D01*
X-36400480Y33681851D01*
X-36554833Y33686494D01*
X-37208039Y33759163D01*
X-37832826Y33911267D01*
X-38426269Y34141505D01*
X-38985439Y34448574D01*
X-39507408Y34831171D01*
X-39865206Y35159350D01*
X-40296988Y35650865D01*
X-40656733Y36186377D01*
X-40945185Y36767186D01*
X-41163090Y37394594D01*
X-41179042Y37452555D01*
X-41218930Y37607044D01*
X-41248068Y37742705D01*
X-41268121Y37877692D01*
X-41280753Y38030155D01*
X-41287629Y38218246D01*
X-41290412Y38460118D01*
X-41290818Y38671500D01*
X-41289910Y38961898D01*
X-41286078Y39185792D01*
X-41277656Y39361331D01*
X-41262980Y39506667D01*
X-41240385Y39639954D01*
X-41208208Y39779341D01*
X-41179042Y39890444D01*
X-40971865Y40504491D01*
X-40693397Y41083163D01*
X-40349157Y41619568D01*
X-39944666Y42106816D01*
X-39485444Y42538013D01*
X-38977010Y42906269D01*
X-38586833Y43126923D01*
X-38012032Y43370538D01*
X-37409584Y43539099D01*
X-36789883Y43632488D01*
X-36163321Y43650584D01*
X-35540292Y43593267D01*
M02*
