G04 #@! TF.GenerationSoftware,KiCad,Pcbnew,5.1.5+dfsg1-2build2*
G04 #@! TF.CreationDate,2021-05-24T09:01:55+02:00*
G04 #@! TF.ProjectId,gopher-pin-v3-drawing,676f7068-6572-42d7-9069-6e2d76332d64,rev?*
G04 #@! TF.SameCoordinates,Original*
G04 #@! TF.FileFunction,Profile,NP*
%FSLAX46Y46*%
G04 Gerber Fmt 4.6, Leading zero omitted, Abs format (unit mm)*
G04 Created by KiCad (PCBNEW 5.1.5+dfsg1-2build2) date 2021-05-24 09:01:55*
%MOMM*%
%LPD*%
G04 APERTURE LIST*
%ADD10C,0.100000*%
G04 APERTURE END LIST*
D10*
X-46400776Y28048364D02*
X-46468514Y28150190D01*
X-46468514Y28150190D02*
X-46523987Y28263484D01*
X-46523987Y28263484D02*
X-46561469Y28374436D01*
X-46561469Y28374436D02*
X-46575235Y28469236D01*
X-46575235Y28469236D02*
X-46575169Y28600598D01*
X-46575169Y28600598D02*
X-49225361Y29141439D01*
X-49225361Y29141439D02*
X-49197576Y31508342D01*
X-49197576Y31508342D02*
X-46573466Y31991603D01*
X-46573466Y31991603D02*
X-46572596Y33722161D01*
X-46572596Y33722161D02*
X-49278839Y34259484D01*
X-49278839Y34259484D02*
X-49251054Y36626387D01*
X-49251054Y36626387D02*
X-46570881Y37136552D01*
X-46570881Y37136552D02*
X-46599558Y39075168D01*
X-46599558Y39075168D02*
X-49208681Y39591512D01*
X-49208681Y39591512D02*
X-49180896Y41958414D01*
X-49180896Y41958414D02*
X-46568203Y42468578D01*
X-46568203Y42468578D02*
X-46566969Y44924139D01*
X-46566969Y44924139D02*
X-49211507Y45451225D01*
X-49211507Y45451225D02*
X-49183722Y47818128D01*
X-49183722Y47818128D02*
X-46565147Y48551220D01*
X-46565147Y48551220D02*
X-46535622Y48672044D01*
X-46535622Y48672044D02*
X-46487777Y48784786D01*
X-46487777Y48784786D02*
X-46422726Y48871653D01*
X-46422726Y48871653D02*
X-46328279Y48982427D01*
X-46328279Y48982427D02*
X-46276360Y49031105D01*
X-46276360Y49031105D02*
X-46210591Y49059996D01*
X-46210591Y49059996D02*
X-42320226Y49052396D01*
X-42320226Y49052396D02*
X-40376162Y49043828D01*
X-40376162Y49043828D02*
X-39160526Y49024466D01*
X-39160526Y49024466D02*
X-38529142Y48990097D01*
X-38529142Y48990097D02*
X-38387490Y48965969D01*
X-38387490Y48965969D02*
X-38337830Y48936509D01*
X-38337830Y48936509D02*
X-38256520Y48771949D01*
X-38256520Y48771949D02*
X-38117890Y48610165D01*
X-38117890Y48610165D02*
X-37932694Y48457063D01*
X-37932694Y48457063D02*
X-37711690Y48318552D01*
X-37711690Y48318552D02*
X-37465631Y48200538D01*
X-37465631Y48200538D02*
X-37205273Y48108929D01*
X-37205273Y48108929D02*
X-36941373Y48049631D01*
X-36941373Y48049631D02*
X-36684684Y48028552D01*
X-36684684Y48028552D02*
X-36427995Y48049631D01*
X-36427995Y48049631D02*
X-36164095Y48108929D01*
X-36164095Y48108929D02*
X-35903737Y48200538D01*
X-35903737Y48200538D02*
X-35657678Y48318552D01*
X-35657678Y48318552D02*
X-35436674Y48457063D01*
X-35436674Y48457063D02*
X-35251478Y48610165D01*
X-35251478Y48610165D02*
X-35112848Y48771949D01*
X-35112848Y48771949D02*
X-35031538Y48936509D01*
X-35031538Y48936509D02*
X-34981888Y48965970D01*
X-34981888Y48965970D02*
X-34840236Y48990099D01*
X-34840236Y48990099D02*
X-34208851Y49024468D01*
X-34208851Y49024468D02*
X-32993215Y49043829D01*
X-32993215Y49043829D02*
X-31049151Y49052396D01*
X-31049151Y49052396D02*
X-27140004Y49059996D01*
X-27140004Y49059996D02*
X-27084384Y49031959D01*
X-27084384Y49031959D02*
X-27033454Y48982757D01*
X-27033454Y48982757D02*
X-26946654Y48871653D01*
X-26946654Y48871653D02*
X-26887434Y48779333D01*
X-26887434Y48779333D02*
X-26838944Y48667196D01*
X-26838944Y48667196D02*
X-26806174Y48549402D01*
X-26806174Y48549402D02*
X-26794144Y48440111D01*
X-26794144Y48440111D02*
X-24171078Y47775345D01*
X-24171078Y47775345D02*
X-24143288Y45408442D01*
X-24143288Y45408442D02*
X-26794155Y44853955D01*
X-26794155Y44853955D02*
X-26794165Y42468575D01*
X-26794165Y42468575D02*
X-24173899Y41915630D01*
X-24173899Y41915630D02*
X-24146109Y39548728D01*
X-24146109Y39548728D02*
X-26794175Y39030820D01*
X-26794175Y39030820D02*
X-26794184Y37066389D01*
X-26794184Y37066389D02*
X-24103736Y36583603D01*
X-24103736Y36583603D02*
X-24075946Y34216700D01*
X-24075946Y34216700D02*
X-26794194Y33768952D01*
X-26794194Y33768952D02*
X-26794202Y31874679D01*
X-26794202Y31874679D02*
X-24157209Y31465558D01*
X-24157209Y31465558D02*
X-24184759Y29128088D01*
X-24184759Y29128088D02*
X-26794217Y28469202D01*
X-26794217Y28469202D02*
X-26807987Y28374402D01*
X-26807987Y28374402D02*
X-26845467Y28263450D01*
X-26845467Y28263450D02*
X-26900937Y28150156D01*
X-26900937Y28150156D02*
X-26968677Y28048330D01*
X-26968677Y28048330D02*
X-27081174Y27904951D01*
X-27081174Y27904951D02*
X-27148374Y27845171D01*
X-27148374Y27845171D02*
X-27215744Y27825571D01*
X-27215744Y27825571D02*
X-36684710Y27826524D01*
X-36684710Y27826524D02*
X-46226321Y27826524D01*
X-46226321Y27826524D02*
X-46257530Y27845704D01*
X-46257530Y27845704D02*
X-46302424Y27904894D01*
X-46302424Y27904894D02*
X-46400780Y28048320D01*
X-46400780Y28048320D02*
X-46400776Y28048327D01*
X-46400776Y28048327D02*
X-46400776Y28048364D01*
M02*
