G04 #@! TF.GenerationSoftware,KiCad,Pcbnew,5.1.5+dfsg1-2build2*
G04 #@! TF.CreationDate,2021-05-24T09:01:55+02:00*
G04 #@! TF.ProjectId,gopher-pin-v3-drawing,676f7068-6572-42d7-9069-6e2d76332d64,rev?*
G04 #@! TF.SameCoordinates,Original*
G04 #@! TF.FileFunction,Soldermask,Bot*
G04 #@! TF.FilePolarity,Negative*
%FSLAX46Y46*%
G04 Gerber Fmt 4.6, Leading zero omitted, Abs format (unit mm)*
G04 Created by KiCad (PCBNEW 5.1.5+dfsg1-2build2) date 2021-05-24 09:01:55*
%MOMM*%
%LPD*%
G04 APERTURE LIST*
%ADD10C,0.010000*%
G04 APERTURE END LIST*
D10*
G36*
X-35601402Y43632689D02*
G01*
X-35032972Y43512617D01*
X-34481136Y43326872D01*
X-33952242Y43076383D01*
X-33452636Y42762077D01*
X-32988665Y42384882D01*
X-32566676Y41945724D01*
X-32193016Y41445532D01*
X-31899446Y40936333D01*
X-31649206Y40350404D01*
X-31479051Y39751929D01*
X-31386564Y39147383D01*
X-31369326Y38543244D01*
X-31424921Y37945987D01*
X-31550931Y37362090D01*
X-31744940Y36798029D01*
X-32004530Y36260281D01*
X-32327283Y35755322D01*
X-32710782Y35289628D01*
X-33152611Y34869677D01*
X-33650351Y34501946D01*
X-34201586Y34192909D01*
X-34459333Y34077661D01*
X-34939317Y33913114D01*
X-35462128Y33794644D01*
X-36002912Y33725224D01*
X-36536812Y33707826D01*
X-37038974Y33745425D01*
X-37126333Y33758634D01*
X-37759765Y33904286D01*
X-38358719Y34124449D01*
X-38918214Y34414272D01*
X-39433272Y34768906D01*
X-39898911Y35183498D01*
X-40310153Y35653199D01*
X-40662017Y36173158D01*
X-40949523Y36738523D01*
X-41167691Y37344446D01*
X-41279154Y37803666D01*
X-41311171Y38038927D01*
X-41330020Y38331992D01*
X-41335958Y38657074D01*
X-41329242Y38988382D01*
X-41310129Y39300125D01*
X-41278877Y39566515D01*
X-41260579Y39666333D01*
X-41089741Y40295965D01*
X-40855643Y40872909D01*
X-40554183Y41405047D01*
X-40181256Y41900265D01*
X-39984622Y42117795D01*
X-39511923Y42556484D01*
X-39005043Y42922082D01*
X-38470329Y43215516D01*
X-37914130Y43437714D01*
X-37342790Y43589603D01*
X-36762658Y43672110D01*
X-36180079Y43686163D01*
X-35601402Y43632689D01*
G37*
X-35601402Y43632689D02*
X-35032972Y43512617D01*
X-34481136Y43326872D01*
X-33952242Y43076383D01*
X-33452636Y42762077D01*
X-32988665Y42384882D01*
X-32566676Y41945724D01*
X-32193016Y41445532D01*
X-31899446Y40936333D01*
X-31649206Y40350404D01*
X-31479051Y39751929D01*
X-31386564Y39147383D01*
X-31369326Y38543244D01*
X-31424921Y37945987D01*
X-31550931Y37362090D01*
X-31744940Y36798029D01*
X-32004530Y36260281D01*
X-32327283Y35755322D01*
X-32710782Y35289628D01*
X-33152611Y34869677D01*
X-33650351Y34501946D01*
X-34201586Y34192909D01*
X-34459333Y34077661D01*
X-34939317Y33913114D01*
X-35462128Y33794644D01*
X-36002912Y33725224D01*
X-36536812Y33707826D01*
X-37038974Y33745425D01*
X-37126333Y33758634D01*
X-37759765Y33904286D01*
X-38358719Y34124449D01*
X-38918214Y34414272D01*
X-39433272Y34768906D01*
X-39898911Y35183498D01*
X-40310153Y35653199D01*
X-40662017Y36173158D01*
X-40949523Y36738523D01*
X-41167691Y37344446D01*
X-41279154Y37803666D01*
X-41311171Y38038927D01*
X-41330020Y38331992D01*
X-41335958Y38657074D01*
X-41329242Y38988382D01*
X-41310129Y39300125D01*
X-41278877Y39566515D01*
X-41260579Y39666333D01*
X-41089741Y40295965D01*
X-40855643Y40872909D01*
X-40554183Y41405047D01*
X-40181256Y41900265D01*
X-39984622Y42117795D01*
X-39511923Y42556484D01*
X-39005043Y42922082D01*
X-38470329Y43215516D01*
X-37914130Y43437714D01*
X-37342790Y43589603D01*
X-36762658Y43672110D01*
X-36180079Y43686163D01*
X-35601402Y43632689D01*
M02*
