G04 #@! TF.GenerationSoftware,KiCad,Pcbnew,5.1.5+dfsg1-2build2*
G04 #@! TF.CreationDate,2021-05-24T09:01:55+02:00*
G04 #@! TF.ProjectId,gopher-pin-v3-drawing,676f7068-6572-42d7-9069-6e2d76332d64,rev?*
G04 #@! TF.SameCoordinates,Original*
G04 #@! TF.FileFunction,Legend,Top*
G04 #@! TF.FilePolarity,Positive*
%FSLAX46Y46*%
G04 Gerber Fmt 4.6, Leading zero omitted, Abs format (unit mm)*
G04 Created by KiCad (PCBNEW 5.1.5+dfsg1-2build2) date 2021-05-24 09:01:55*
%MOMM*%
%LPD*%
G04 APERTURE LIST*
%ADD10C,0.010000*%
G04 APERTURE END LIST*
D10*
G36*
X-36196563Y37054343D02*
G01*
X-36117078Y36957660D01*
X-36075209Y36785480D01*
X-36068066Y36640664D01*
X-36083913Y36450303D01*
X-36126413Y36281050D01*
X-36188156Y36152560D01*
X-36261731Y36084488D01*
X-36279666Y36079426D01*
X-36367899Y36091392D01*
X-36417250Y36113155D01*
X-36454810Y36149251D01*
X-36476768Y36214984D01*
X-36486418Y36328772D01*
X-36487113Y36504020D01*
X-36480434Y36735249D01*
X-36464366Y36894973D01*
X-36434977Y36996179D01*
X-36388329Y37051852D01*
X-36320489Y37074978D01*
X-36313836Y37075833D01*
X-36196563Y37054343D01*
G37*
X-36196563Y37054343D02*
X-36117078Y36957660D01*
X-36075209Y36785480D01*
X-36068066Y36640664D01*
X-36083913Y36450303D01*
X-36126413Y36281050D01*
X-36188156Y36152560D01*
X-36261731Y36084488D01*
X-36279666Y36079426D01*
X-36367899Y36091392D01*
X-36417250Y36113155D01*
X-36454810Y36149251D01*
X-36476768Y36214984D01*
X-36486418Y36328772D01*
X-36487113Y36504020D01*
X-36480434Y36735249D01*
X-36464366Y36894973D01*
X-36434977Y36996179D01*
X-36388329Y37051852D01*
X-36320489Y37074978D01*
X-36313836Y37075833D01*
X-36196563Y37054343D01*
G36*
X-36801197Y37066441D02*
G01*
X-36753800Y37033200D01*
X-36727342Y36964222D01*
X-36710548Y36836779D01*
X-36703736Y36676557D01*
X-36707220Y36509241D01*
X-36721318Y36360514D01*
X-36744285Y36261256D01*
X-36809295Y36173236D01*
X-36896726Y36159487D01*
X-36987817Y36220303D01*
X-37015631Y36257010D01*
X-37057136Y36365853D01*
X-37080776Y36519909D01*
X-37086481Y36691303D01*
X-37074186Y36852162D01*
X-37043822Y36974609D01*
X-37017476Y37017476D01*
X-36911009Y37077416D01*
X-36801197Y37066441D01*
G37*
X-36801197Y37066441D02*
X-36753800Y37033200D01*
X-36727342Y36964222D01*
X-36710548Y36836779D01*
X-36703736Y36676557D01*
X-36707220Y36509241D01*
X-36721318Y36360514D01*
X-36744285Y36261256D01*
X-36809295Y36173236D01*
X-36896726Y36159487D01*
X-36987817Y36220303D01*
X-37015631Y36257010D01*
X-37057136Y36365853D01*
X-37080776Y36519909D01*
X-37086481Y36691303D01*
X-37074186Y36852162D01*
X-37043822Y36974609D01*
X-37017476Y37017476D01*
X-36911009Y37077416D01*
X-36801197Y37066441D01*
G36*
X-32107838Y43355763D02*
G01*
X-31725323Y43344227D01*
X-31408443Y43316793D01*
X-31139100Y43270103D01*
X-30899194Y43200800D01*
X-30670628Y43105525D01*
X-30616861Y43079132D01*
X-30202784Y42825126D01*
X-29846373Y42511714D01*
X-29550738Y42144238D01*
X-29318988Y41728041D01*
X-29154235Y41268463D01*
X-29059588Y40770846D01*
X-29036440Y40364833D01*
X-29073502Y39788786D01*
X-29186227Y39241604D01*
X-29372929Y38729217D01*
X-29631925Y38257558D01*
X-29637361Y38249293D01*
X-29913573Y37882705D01*
X-30204434Y37598660D01*
X-30511271Y37396089D01*
X-30835412Y37273925D01*
X-30854758Y37269287D01*
X-31104705Y37225752D01*
X-31392130Y37198370D01*
X-31681146Y37189064D01*
X-31935869Y37199758D01*
X-32004000Y37207679D01*
X-32491451Y37312391D01*
X-32937105Y37485456D01*
X-33350694Y37731797D01*
X-33741950Y38056337D01*
X-33806773Y38119470D01*
X-33985545Y38302724D01*
X-34118292Y38455204D01*
X-34223155Y38601377D01*
X-34318270Y38765711D01*
X-34388608Y38904333D01*
X-34532931Y39222394D01*
X-34632813Y39507433D01*
X-34696979Y39792318D01*
X-34734154Y40109919D01*
X-34742568Y40237833D01*
X-34736783Y40783827D01*
X-34656432Y41289749D01*
X-34501482Y41755696D01*
X-34283010Y42161147D01*
X-32830129Y42161147D01*
X-32807254Y41947836D01*
X-32722766Y41744549D01*
X-32583586Y41568638D01*
X-32410709Y41443964D01*
X-32337502Y41414000D01*
X-32139952Y41374299D01*
X-31924222Y41367269D01*
X-31728949Y41392717D01*
X-31651414Y41417410D01*
X-31477230Y41533392D01*
X-31333731Y41713715D01*
X-31229059Y41941108D01*
X-31171358Y42198302D01*
X-31166681Y42445482D01*
X-31207172Y42642426D01*
X-31300139Y42795485D01*
X-31458782Y42922777D01*
X-31552529Y42975156D01*
X-31769606Y43048030D01*
X-31998232Y43045393D01*
X-32251252Y42967200D01*
X-32489469Y42824956D01*
X-32670059Y42634574D01*
X-32785964Y42408991D01*
X-32830129Y42161147D01*
X-34283010Y42161147D01*
X-34271899Y42181766D01*
X-33967649Y42568053D01*
X-33904646Y42633676D01*
X-33744838Y42784680D01*
X-33585458Y42908130D01*
X-33399164Y43023018D01*
X-33176285Y43139572D01*
X-32727446Y43362683D01*
X-32107838Y43355763D01*
G37*
X-32107838Y43355763D02*
X-31725323Y43344227D01*
X-31408443Y43316793D01*
X-31139100Y43270103D01*
X-30899194Y43200800D01*
X-30670628Y43105525D01*
X-30616861Y43079132D01*
X-30202784Y42825126D01*
X-29846373Y42511714D01*
X-29550738Y42144238D01*
X-29318988Y41728041D01*
X-29154235Y41268463D01*
X-29059588Y40770846D01*
X-29036440Y40364833D01*
X-29073502Y39788786D01*
X-29186227Y39241604D01*
X-29372929Y38729217D01*
X-29631925Y38257558D01*
X-29637361Y38249293D01*
X-29913573Y37882705D01*
X-30204434Y37598660D01*
X-30511271Y37396089D01*
X-30835412Y37273925D01*
X-30854758Y37269287D01*
X-31104705Y37225752D01*
X-31392130Y37198370D01*
X-31681146Y37189064D01*
X-31935869Y37199758D01*
X-32004000Y37207679D01*
X-32491451Y37312391D01*
X-32937105Y37485456D01*
X-33350694Y37731797D01*
X-33741950Y38056337D01*
X-33806773Y38119470D01*
X-33985545Y38302724D01*
X-34118292Y38455204D01*
X-34223155Y38601377D01*
X-34318270Y38765711D01*
X-34388608Y38904333D01*
X-34532931Y39222394D01*
X-34632813Y39507433D01*
X-34696979Y39792318D01*
X-34734154Y40109919D01*
X-34742568Y40237833D01*
X-34736783Y40783827D01*
X-34656432Y41289749D01*
X-34501482Y41755696D01*
X-34283010Y42161147D01*
X-32830129Y42161147D01*
X-32807254Y41947836D01*
X-32722766Y41744549D01*
X-32583586Y41568638D01*
X-32410709Y41443964D01*
X-32337502Y41414000D01*
X-32139952Y41374299D01*
X-31924222Y41367269D01*
X-31728949Y41392717D01*
X-31651414Y41417410D01*
X-31477230Y41533392D01*
X-31333731Y41713715D01*
X-31229059Y41941108D01*
X-31171358Y42198302D01*
X-31166681Y42445482D01*
X-31207172Y42642426D01*
X-31300139Y42795485D01*
X-31458782Y42922777D01*
X-31552529Y42975156D01*
X-31769606Y43048030D01*
X-31998232Y43045393D01*
X-32251252Y42967200D01*
X-32489469Y42824956D01*
X-32670059Y42634574D01*
X-32785964Y42408991D01*
X-32830129Y42161147D01*
X-34283010Y42161147D01*
X-34271899Y42181766D01*
X-33967649Y42568053D01*
X-33904646Y42633676D01*
X-33744838Y42784680D01*
X-33585458Y42908130D01*
X-33399164Y43023018D01*
X-33176285Y43139572D01*
X-32727446Y43362683D01*
X-32107838Y43355763D01*
G36*
X-40768672Y43410692D02*
G01*
X-40505513Y43390280D01*
X-40290824Y43354531D01*
X-40216666Y43333537D01*
X-39763135Y43139848D01*
X-39366157Y42885744D01*
X-39022759Y42568391D01*
X-38729967Y42184952D01*
X-38484808Y41732595D01*
X-38446485Y41645911D01*
X-38409389Y41556939D01*
X-38381393Y41477298D01*
X-38361218Y41393511D01*
X-38347582Y41292100D01*
X-38339206Y41159587D01*
X-38334809Y40982497D01*
X-38333112Y40747350D01*
X-38332833Y40449500D01*
X-38333222Y40143694D01*
X-38335171Y39909358D01*
X-38339855Y39733295D01*
X-38348448Y39602311D01*
X-38362123Y39503207D01*
X-38382055Y39422789D01*
X-38409417Y39347860D01*
X-38436408Y39285333D01*
X-38697905Y38792021D01*
X-39014893Y38359731D01*
X-39383901Y37991337D01*
X-39801459Y37689712D01*
X-40264097Y37457732D01*
X-40768343Y37298268D01*
X-40860465Y37278061D01*
X-41092366Y37242975D01*
X-41358224Y37222478D01*
X-41629510Y37217059D01*
X-41877699Y37227207D01*
X-42074263Y37253412D01*
X-42090089Y37256960D01*
X-42400614Y37372214D01*
X-42710975Y37571171D01*
X-42989500Y37821617D01*
X-43316932Y38213752D01*
X-43586095Y38654749D01*
X-43792215Y39130988D01*
X-43930519Y39628853D01*
X-43996235Y40134724D01*
X-43984587Y40634983D01*
X-43982457Y40654577D01*
X-43886307Y41194394D01*
X-43725868Y41683525D01*
X-43517133Y42092212D01*
X-42201436Y42092212D01*
X-42147735Y41852131D01*
X-42141523Y41836835D01*
X-41992171Y41574593D01*
X-41790262Y41378264D01*
X-41639787Y41289768D01*
X-41411136Y41213647D01*
X-41199808Y41216646D01*
X-40990664Y41299693D01*
X-40937476Y41332719D01*
X-40782214Y41480524D01*
X-40656348Y41686670D01*
X-40567372Y41927712D01*
X-40522781Y42180205D01*
X-40530071Y42420704D01*
X-40555254Y42528324D01*
X-40665295Y42748994D01*
X-40831020Y42907314D01*
X-41046722Y42999246D01*
X-41252842Y43022275D01*
X-41518610Y42986212D01*
X-41752941Y42887055D01*
X-41947113Y42736440D01*
X-42092402Y42546004D01*
X-42180084Y42327382D01*
X-42201436Y42092212D01*
X-43517133Y42092212D01*
X-43503320Y42119256D01*
X-43220844Y42498877D01*
X-42880620Y42819674D01*
X-42484827Y43078937D01*
X-42035648Y43273952D01*
X-41825333Y43337728D01*
X-41608633Y43379286D01*
X-41344267Y43405258D01*
X-41056268Y43415706D01*
X-40768672Y43410692D01*
G37*
X-40768672Y43410692D02*
X-40505513Y43390280D01*
X-40290824Y43354531D01*
X-40216666Y43333537D01*
X-39763135Y43139848D01*
X-39366157Y42885744D01*
X-39022759Y42568391D01*
X-38729967Y42184952D01*
X-38484808Y41732595D01*
X-38446485Y41645911D01*
X-38409389Y41556939D01*
X-38381393Y41477298D01*
X-38361218Y41393511D01*
X-38347582Y41292100D01*
X-38339206Y41159587D01*
X-38334809Y40982497D01*
X-38333112Y40747350D01*
X-38332833Y40449500D01*
X-38333222Y40143694D01*
X-38335171Y39909358D01*
X-38339855Y39733295D01*
X-38348448Y39602311D01*
X-38362123Y39503207D01*
X-38382055Y39422789D01*
X-38409417Y39347860D01*
X-38436408Y39285333D01*
X-38697905Y38792021D01*
X-39014893Y38359731D01*
X-39383901Y37991337D01*
X-39801459Y37689712D01*
X-40264097Y37457732D01*
X-40768343Y37298268D01*
X-40860465Y37278061D01*
X-41092366Y37242975D01*
X-41358224Y37222478D01*
X-41629510Y37217059D01*
X-41877699Y37227207D01*
X-42074263Y37253412D01*
X-42090089Y37256960D01*
X-42400614Y37372214D01*
X-42710975Y37571171D01*
X-42989500Y37821617D01*
X-43316932Y38213752D01*
X-43586095Y38654749D01*
X-43792215Y39130988D01*
X-43930519Y39628853D01*
X-43996235Y40134724D01*
X-43984587Y40634983D01*
X-43982457Y40654577D01*
X-43886307Y41194394D01*
X-43725868Y41683525D01*
X-43517133Y42092212D01*
X-42201436Y42092212D01*
X-42147735Y41852131D01*
X-42141523Y41836835D01*
X-41992171Y41574593D01*
X-41790262Y41378264D01*
X-41639787Y41289768D01*
X-41411136Y41213647D01*
X-41199808Y41216646D01*
X-40990664Y41299693D01*
X-40937476Y41332719D01*
X-40782214Y41480524D01*
X-40656348Y41686670D01*
X-40567372Y41927712D01*
X-40522781Y42180205D01*
X-40530071Y42420704D01*
X-40555254Y42528324D01*
X-40665295Y42748994D01*
X-40831020Y42907314D01*
X-41046722Y42999246D01*
X-41252842Y43022275D01*
X-41518610Y42986212D01*
X-41752941Y42887055D01*
X-41947113Y42736440D01*
X-42092402Y42546004D01*
X-42180084Y42327382D01*
X-42201436Y42092212D01*
X-43517133Y42092212D01*
X-43503320Y42119256D01*
X-43220844Y42498877D01*
X-42880620Y42819674D01*
X-42484827Y43078937D01*
X-42035648Y43273952D01*
X-41825333Y43337728D01*
X-41608633Y43379286D01*
X-41344267Y43405258D01*
X-41056268Y43415706D01*
X-40768672Y43410692D01*
G36*
X-32187020Y42817304D02*
G01*
X-32059533Y42743734D01*
X-32011741Y42643448D01*
X-32044587Y42518504D01*
X-32047668Y42512885D01*
X-32139456Y42415414D01*
X-32253905Y42383527D01*
X-32365449Y42421736D01*
X-32397792Y42451079D01*
X-32457728Y42564473D01*
X-32454152Y42678895D01*
X-32399264Y42773146D01*
X-32305266Y42826027D01*
X-32187020Y42817304D01*
G37*
X-32187020Y42817304D02*
X-32059533Y42743734D01*
X-32011741Y42643448D01*
X-32044587Y42518504D01*
X-32047668Y42512885D01*
X-32139456Y42415414D01*
X-32253905Y42383527D01*
X-32365449Y42421736D01*
X-32397792Y42451079D01*
X-32457728Y42564473D01*
X-32454152Y42678895D01*
X-32399264Y42773146D01*
X-32305266Y42826027D01*
X-32187020Y42817304D01*
G36*
X-41542814Y42728378D02*
G01*
X-41479042Y42651005D01*
X-41453759Y42558100D01*
X-41489777Y42481265D01*
X-41507678Y42460505D01*
X-41614082Y42390548D01*
X-41731539Y42381745D01*
X-41816866Y42426466D01*
X-41859279Y42508999D01*
X-41867666Y42566166D01*
X-41833867Y42675211D01*
X-41750464Y42742523D01*
X-41644448Y42762209D01*
X-41542814Y42728378D01*
G37*
X-41542814Y42728378D02*
X-41479042Y42651005D01*
X-41453759Y42558100D01*
X-41489777Y42481265D01*
X-41507678Y42460505D01*
X-41614082Y42390548D01*
X-41731539Y42381745D01*
X-41816866Y42426466D01*
X-41859279Y42508999D01*
X-41867666Y42566166D01*
X-41833867Y42675211D01*
X-41750464Y42742523D01*
X-41644448Y42762209D01*
X-41542814Y42728378D01*
M02*
